<svg xmlns="http://www.w3.org/2000/svg" xmlns:xlink="http://www.w3.org/1999/xlink" width="1920" zoomAndPan="magnify" viewBox="0 0 1440 809.999993" height="1080" preserveAspectRatio="xMidYMid meet" version="1.0"><defs><g/><clipPath id="4b9d02ee20"><path d="M 904.632812 286 L 1082 286 L 1082 543 L 904.632812 543 Z M 904.632812 286 " clip-rule="nonzero"/></clipPath><clipPath id="5d90b35790"><path d="M 1231 286 L 1408.476562 286 L 1408.476562 543 L 1231 543 Z M 1231 286 " clip-rule="nonzero"/></clipPath><clipPath id="62f2ece0b5"><path d="M 1068 219.375 L 1242 219.375 L 1242 609.695312 L 1068 609.695312 Z M 1068 219.375 " clip-rule="nonzero"/></clipPath><clipPath id="9de87e6bb1"><path d="M 558 16 L 1206 16 L 1206 664 L 558 664 Z M 558 16 " clip-rule="nonzero"/></clipPath><clipPath id="f8ecc83e8e"><path d="M 732.5 16.625 L 1205.476562 190.265625 L 1031.835938 663.238281 L 558.863281 489.601562 Z M 732.5 16.625 " clip-rule="nonzero"/></clipPath><clipPath id="9f438219c9"><path d="M 892 243.6875 L 939 243.6875 L 939 265 L 892 265 Z M 892 243.6875 " clip-rule="nonzero"/></clipPath><clipPath id="36cc2f2efa"><path d="M 906 243.6875 L 941 243.6875 L 941 263 L 906 263 Z M 906 243.6875 " clip-rule="nonzero"/></clipPath><clipPath id="234a5ffb38"><path d="M 999 544 L 1039 544 L 1039 588.6875 L 999 588.6875 Z M 999 544 " clip-rule="nonzero"/></clipPath><clipPath id="22c6ff9112"><path d="M 1036.066406 567 L 1069.582031 567 L 1069.582031 588.6875 L 1036.066406 588.6875 Z M 1036.066406 567 " clip-rule="nonzero"/></clipPath><clipPath id="f39917d9ce"><path d="M 1038 561 L 1069.582031 561 L 1069.582031 586 L 1038 586 Z M 1038 561 " clip-rule="nonzero"/></clipPath><clipPath id="92f26a0382"><path d="M 1019 528 L 1069.582031 528 L 1069.582031 580 L 1019 580 Z M 1019 528 " clip-rule="nonzero"/></clipPath><clipPath id="bd38406758"><path d="M 1000 543 L 1039 543 L 1039 588.6875 L 1000 588.6875 Z M 1000 543 " clip-rule="nonzero"/></clipPath><clipPath id="c98865991d"><path d="M 31.710938 284 L 209 284 L 209 542 L 31.710938 542 Z M 31.710938 284 " clip-rule="nonzero"/></clipPath><clipPath id="30c00764fb"><path d="M 358 284 L 535.550781 284 L 535.550781 542 L 358 542 Z M 358 284 " clip-rule="nonzero"/></clipPath><clipPath id="d078deb426"><path d="M 195 218.144531 L 370 218.144531 L 370 608.46875 L 195 608.46875 Z M 195 218.144531 " clip-rule="nonzero"/></clipPath><clipPath id="2af0558af0"><path d="M 183 146 L 830 146 L 830 794 L 183 794 Z M 183 146 " clip-rule="nonzero"/></clipPath><clipPath id="521b99ec09"><path d="M 356.875 146.757812 L 829.851562 320.398438 L 656.210938 793.375 L 183.238281 619.734375 Z M 356.875 146.757812 " clip-rule="nonzero"/></clipPath></defs><path fill="#6db5e7" d="M 1063.59375 537.613281 C 1060.808594 537.613281 1058.066406 536.679688 1055.875 534.941406 L 914.96875 424.3125 C 911.9375 421.9375 910.203125 418.375 910.203125 414.535156 C 910.203125 410.695312 911.9375 407.132812 914.960938 404.734375 L 1055.875 294.128906 C 1058.066406 292.390625 1060.808594 291.457031 1063.59375 291.457031 C 1067.441406 291.457031 1071.03125 293.175781 1073.394531 296.207031 C 1075.453125 298.816406 1076.390625 302.085938 1075.984375 305.371094 C 1075.601562 308.679688 1073.925781 311.628906 1071.308594 313.6875 L 942.886719 414.535156 L 1071.308594 515.359375 C 1073.925781 517.441406 1075.601562 520.386719 1075.984375 523.675781 C 1076.390625 526.984375 1075.453125 530.230469 1073.394531 532.863281 C 1071.03125 535.875 1067.441406 537.613281 1063.59375 537.613281 " fill-opacity="1" fill-rule="nonzero"/><g clip-path="url(#4b9d02ee20)"><path fill="#224c8d" d="M 1063.59375 286.152344 C 1059.617188 286.152344 1055.726562 287.488281 1052.601562 289.949219 L 911.679688 400.578125 C 907.355469 403.992188 904.890625 409.0625 904.890625 414.535156 C 904.890625 420.007812 907.371094 425.097656 911.679688 428.492188 L 1052.601562 539.121094 C 1055.707031 541.558594 1059.617188 542.917969 1063.59375 542.917969 C 1069.097656 542.917969 1074.199219 540.433594 1077.582031 536.128906 C 1080.535156 532.417969 1081.832031 527.769531 1081.28125 523.0625 C 1080.707031 518.351562 1078.347656 514.128906 1074.605469 511.203125 L 951.476562 414.535156 L 1074.605469 317.867188 C 1078.347656 314.917969 1080.707031 310.71875 1081.28125 306.007812 C 1081.832031 301.300781 1080.535156 296.652344 1077.582031 292.921875 C 1074.199219 288.613281 1069.078125 286.152344 1063.59375 286.152344 Z M 1063.59375 296.761719 C 1065.71875 296.761719 1067.824219 297.691406 1069.226562 299.476562 C 1071.691406 302.59375 1071.140625 307.089844 1068.035156 309.53125 L 934.277344 414.535156 L 1068.035156 519.539062 C 1071.140625 521.980469 1071.691406 526.476562 1069.226562 529.574219 C 1067.824219 531.375 1065.71875 532.308594 1063.59375 532.308594 C 1062.039062 532.308594 1060.488281 531.820312 1059.171875 530.78125 L 918.25 420.15625 C 916.53125 418.800781 915.519531 416.71875 915.519531 414.535156 C 915.519531 412.328125 916.53125 410.269531 918.25 408.914062 L 1059.171875 298.289062 C 1060.46875 297.246094 1062.039062 296.761719 1063.59375 296.761719 " fill-opacity="1" fill-rule="nonzero"/></g><path fill="#6db5e7" d="M 1249.515625 537.613281 C 1245.667969 537.613281 1242.097656 535.875 1239.695312 532.863281 C 1235.445312 527.472656 1236.378906 519.625 1241.800781 515.359375 L 1370.242188 414.535156 L 1241.800781 313.6875 C 1236.378906 309.445312 1235.445312 301.597656 1239.695312 296.207031 C 1242.097656 293.175781 1245.667969 291.457031 1249.515625 291.457031 C 1252.300781 291.457031 1255.042969 292.390625 1257.234375 294.128906 L 1398.15625 404.734375 C 1401.175781 407.132812 1402.894531 410.695312 1402.894531 414.535156 C 1402.894531 418.375 1401.175781 421.9375 1398.132812 424.3125 L 1257.234375 534.941406 C 1255.042969 536.679688 1252.300781 537.613281 1249.515625 537.613281 " fill-opacity="1" fill-rule="nonzero"/><g clip-path="url(#5d90b35790)"><path fill="#224c8d" d="M 1249.515625 286.152344 C 1244.03125 286.152344 1238.929688 288.613281 1235.53125 292.921875 C 1229.449219 300.621094 1230.789062 311.800781 1238.503906 317.867188 L 1361.632812 414.535156 L 1238.503906 511.203125 C 1230.789062 517.25 1229.449219 528.449219 1235.53125 536.128906 C 1238.929688 540.433594 1244.03125 542.917969 1249.515625 542.917969 C 1253.492188 542.917969 1257.382812 541.558594 1260.507812 539.121094 L 1401.429688 428.492188 C 1405.746094 425.097656 1408.210938 420.007812 1408.210938 414.535156 C 1408.210938 409.0625 1405.746094 403.992188 1401.449219 400.578125 L 1260.53125 289.949219 C 1257.40625 287.488281 1253.492188 286.152344 1249.515625 286.152344 Z M 1249.515625 296.761719 C 1251.070312 296.761719 1252.640625 297.246094 1253.9375 298.289062 L 1394.859375 408.914062 C 1396.582031 410.269531 1397.582031 412.328125 1397.582031 414.535156 C 1397.582031 416.71875 1396.582031 418.796875 1394.859375 420.15625 L 1253.9375 530.78125 C 1252.640625 531.820312 1251.070312 532.308594 1249.515625 532.308594 C 1247.390625 532.308594 1245.285156 531.375 1243.882812 529.574219 C 1241.4375 526.476562 1241.972656 521.980469 1245.074219 519.539062 L 1378.832031 414.535156 L 1245.074219 309.53125 C 1241.972656 307.089844 1241.4375 302.59375 1243.882812 299.476562 C 1245.285156 297.691406 1247.414062 296.757812 1249.515625 296.757812 " fill-opacity="1" fill-rule="nonzero"/></g><path fill="#6db5e7" d="M 1086.53125 604.371094 C 1084.976562 604.371094 1083.46875 604.074219 1082.023438 603.523438 C 1078.917969 602.3125 1076.453125 599.980469 1075.113281 596.945312 C 1073.753906 593.890625 1073.691406 590.519531 1074.878906 587.421875 L 1212.507812 232.652344 C 1214.355469 227.902344 1219.03125 224.699219 1224.136719 224.699219 C 1225.6875 224.699219 1227.21875 224.996094 1228.664062 225.546875 C 1235.0625 228.03125 1238.273438 235.261719 1235.785156 241.667969 L 1098.179688 596.417969 C 1096.332031 601.167969 1091.632812 604.371094 1086.53125 604.371094 " fill-opacity="1" fill-rule="nonzero"/><g clip-path="url(#62f2ece0b5)"><path fill="#224c8d" d="M 1224.136719 219.394531 C 1216.84375 219.394531 1210.167969 223.976562 1207.554688 230.746094 L 1069.925781 585.492188 C 1068.226562 589.925781 1068.332031 594.742188 1070.246094 599.089844 C 1072.179688 603.417969 1075.667969 606.769531 1080.109375 608.464844 C 1082.171875 609.269531 1084.320312 609.675781 1086.53125 609.675781 C 1093.820312 609.675781 1100.496094 605.113281 1103.132812 598.324219 L 1240.738281 243.578125 C 1244.289062 234.4375 1239.71875 224.125 1230.554688 220.605469 C 1228.515625 219.796875 1226.347656 219.394531 1224.136719 219.394531 Z M 1224.136719 230.003906 C 1225.007812 230.003906 1225.878906 230.171875 1226.730469 230.488281 C 1230.425781 231.910156 1232.253906 236.046875 1230.832031 239.738281 L 1093.207031 594.484375 C 1092.121094 597.328125 1089.398438 599.066406 1086.53125 599.066406 C 1085.660156 599.066406 1084.785156 598.917969 1083.9375 598.578125 C 1080.238281 597.160156 1078.410156 593 1079.855469 589.332031 L 1217.460938 234.585938 C 1218.566406 231.742188 1221.265625 230.003906 1224.136719 230.003906 " fill-opacity="1" fill-rule="nonzero"/></g><g clip-path="url(#9de87e6bb1)"><g clip-path="url(#f8ecc83e8e)"><path fill="#000000" d="M 732.5 16.625 L 1205.476562 190.265625 L 1031.835938 663.242188 L 558.863281 489.601562 Z M 732.5 16.625 " fill-opacity="1" fill-rule="nonzero"/></g></g><path fill="#2a3996" d="M 891.683594 264.851562 L 922.878906 246.730469 C 923.105469 246.59375 923.363281 246.507812 923.640625 246.453125 L 892.425781 264.574219 C 892.148438 264.625 891.90625 264.730469 891.683594 264.851562 " fill-opacity="1" fill-rule="nonzero"/><path fill="#2a3996" d="M 903.71875 275.691406 L 934.933594 257.554688 L 943.320312 268.859375 L 912.125 286.980469 L 903.71875 275.691406 " fill-opacity="1" fill-rule="nonzero"/><path fill="#2a3996" d="M 944.046875 277.765625 L 912.832031 295.882812 C 913.058594 295.761719 913.246094 295.605469 913.421875 295.398438 C 914.90625 293.707031 914.320312 289.953125 912.125 286.980469 L 943.320312 268.859375 C 945.519531 271.816406 946.105469 275.570312 944.617188 277.261719 C 944.445312 277.472656 944.253906 277.625 944.046875 277.765625 " fill-opacity="1" fill-rule="nonzero"/><g clip-path="url(#9f438219c9)"><path fill="#2a3996" d="M 892.425781 264.574219 L 923.640625 246.453125 L 938.046875 243.742188 L 906.847656 261.859375 L 892.425781 264.574219 " fill-opacity="1" fill-rule="nonzero"/></g><g clip-path="url(#36cc2f2efa)"><path fill="#2a3996" d="M 906.847656 261.859375 L 938.046875 243.742188 C 938.878906 243.585938 939.8125 243.828125 940.726562 244.34375 L 909.53125 262.480469 C 908.613281 261.945312 907.679688 261.703125 906.847656 261.859375 " fill-opacity="1" fill-rule="nonzero"/></g><path fill="#2a3996" d="M 944.101562 255.703125 L 912.902344 273.839844 C 914.476562 272.925781 914.785156 270.191406 913.507812 267.234375 C 912.589844 265.109375 911.085938 263.378906 909.53125 262.480469 L 940.726562 244.34375 C 942.285156 245.246094 943.789062 246.972656 944.703125 249.101562 C 945.984375 252.054688 945.691406 254.789062 944.101562 255.703125 " fill-opacity="1" fill-rule="nonzero"/><path fill="#2a3996" d="M 909.53125 262.480469 C 911.085938 263.378906 912.589844 265.109375 913.507812 267.234375 C 914.960938 270.605469 914.371094 273.703125 912.160156 274.117188 L 903.71875 275.691406 L 912.125 286.980469 C 914.320312 289.953125 914.90625 293.707031 913.421875 295.398438 C 912.503906 296.453125 910.964844 296.4375 909.425781 295.539062 C 908.507812 295.019531 907.59375 294.171875 906.761719 293.082031 L 892.410156 273.753906 C 891.058594 271.957031 890.28125 269.777344 890.28125 267.925781 C 890.300781 266.09375 891.09375 264.832031 892.425781 264.574219 L 906.847656 261.859375 C 907.679688 261.703125 908.613281 261.945312 909.53125 262.480469 " fill-opacity="1" fill-rule="nonzero"/><path fill="#3c83cc" d="M 846.996094 469.308594 L 878.191406 451.171875 L 888.066406 456.878906 L 856.871094 475.015625 L 846.996094 469.308594 " fill-opacity="1" fill-rule="nonzero"/><path fill="#3c83cc" d="M 888.066406 456.878906 C 890.039062 464.433594 895.367188 472.125 901.625 475.738281 L 870.410156 493.875 C 864.152344 490.261719 858.839844 482.570312 856.871094 475.015625 C 866.226562 469.566406 878.710938 462.324219 888.066406 456.878906 " fill-opacity="1" fill-rule="nonzero"/><path fill="#6dc1cf" d="M 887.273438 450.894531 C 887.273438 452.832031 887.550781 454.855469 888.066406 456.878906 L 856.871094 475.015625 C 856.351562 472.972656 856.058594 470.96875 856.074219 469.03125 C 865.429688 463.585938 877.898438 456.339844 887.273438 450.894531 " fill-opacity="1" fill-rule="nonzero"/><path fill="#2a3996" d="M 865.65625 474.5625 L 896.871094 456.445312 C 896.851562 459.472656 898.996094 463.1875 901.660156 464.726562 L 870.445312 482.84375 C 867.800781 481.308594 865.65625 477.605469 865.65625 474.5625 " fill-opacity="1" fill-rule="nonzero"/><path fill="#3c83cc" d="M 850.714844 431.964844 L 881.910156 413.847656 L 878.191406 451.171875 L 846.996094 469.308594 L 850.714844 431.964844 " fill-opacity="1" fill-rule="nonzero"/><path fill="#6dc1cf" d="M 856.09375 458 L 887.308594 439.882812 L 887.273438 450.894531 L 856.074219 469.03125 L 856.09375 458 " fill-opacity="1" fill-rule="nonzero"/><path fill="#2a3996" d="M 865.671875 469.050781 L 896.871094 450.929688 L 896.871094 456.445312 L 865.65625 474.5625 L 865.671875 469.050781 " fill-opacity="1" fill-rule="nonzero"/><path fill="#6dc1cf" d="M 857.492188 454.925781 L 888.707031 436.804688 C 887.84375 437.308594 887.308594 438.363281 887.308594 439.882812 L 856.09375 458 C 856.109375 456.496094 856.628906 455.425781 857.492188 454.925781 " fill-opacity="1" fill-rule="nonzero"/><path fill="#2a3996" d="M 857.492188 454.925781 L 888.707031 436.804688 C 889.503906 436.339844 890.574219 436.355469 891.769531 436.945312 C 891.871094 436.996094 891.992188 437.066406 892.113281 437.132812 L 860.917969 455.253906 C 860.796875 455.183594 860.675781 455.132812 860.554688 455.078125 C 859.359375 454.472656 858.289062 454.457031 857.492188 454.925781 " fill-opacity="1" fill-rule="nonzero"/><path fill="#2a3996" d="M 860.917969 455.253906 L 892.113281 437.132812 L 901.382812 442.476562 L 870.167969 460.613281 L 860.917969 455.253906 " fill-opacity="1" fill-rule="nonzero"/><path fill="#3c83cc" d="M 858.117188 411.097656 L 889.3125 392.960938 C 885.386719 398.128906 882.777344 405.148438 881.910156 413.847656 L 850.714844 431.964844 C 851.578125 423.285156 854.171875 416.265625 858.117188 411.097656 " fill-opacity="1" fill-rule="nonzero"/><path fill="#6dc1cf" d="M 858.117188 411.097656 L 889.3125 392.960938 L 891.769531 436.945312 L 860.554688 455.078125 L 858.117188 411.097656 " fill-opacity="1" fill-rule="nonzero"/><path fill="#6dc1cf" d="M 850.714844 431.964844 C 851.578125 423.285156 854.171875 416.265625 858.117188 411.097656 L 860.554688 455.078125 C 858.0625 453.851562 856.109375 455.097656 856.09375 458 L 856.074219 469.03125 C 856.058594 470.96875 856.351562 472.972656 856.871094 475.015625 L 846.996094 469.308594 L 850.714844 431.964844 " fill-opacity="1" fill-rule="nonzero"/><path fill="#3c83cc" d="M 856.871094 475.015625 C 858.839844 482.570312 864.152344 490.261719 870.410156 493.875 L 841.632812 477.261719 C 840.269531 476.464844 838.972656 475.046875 838.054688 473.371094 C 837.15625 471.675781 836.722656 469.878906 836.878906 468.410156 L 841.167969 425.308594 C 842.65625 410.386719 848.464844 399.632812 857.148438 393.703125 L 858.117188 411.097656 C 854.171875 416.265625 851.578125 423.285156 850.714844 431.964844 L 846.996094 469.308594 L 856.871094 475.015625 " fill-opacity="1" fill-rule="nonzero"/><path fill="#3c83cc" d="M 857.148438 393.703125 L 888.34375 375.566406 L 889.3125 392.960938 L 858.117188 411.097656 L 857.148438 393.703125 " fill-opacity="1" fill-rule="nonzero"/><path fill="#2a3996" d="M 866.382812 392.113281 L 897.578125 373.976562 L 901.382812 442.476562 L 870.167969 460.613281 L 866.382812 392.113281 " fill-opacity="1" fill-rule="nonzero"/><path fill="#2a3996" d="M 867.765625 389.089844 L 898.980469 370.953125 C 898.117188 371.453125 897.578125 372.507812 897.578125 373.976562 L 866.382812 392.113281 C 866.382812 390.625 866.917969 389.589844 867.765625 389.089844 " fill-opacity="1" fill-rule="nonzero"/><path fill="#6979c5" d="M 899.015625 370.953125 C 899.898438 370.449219 901.089844 370.519531 902.40625 371.28125 L 871.207031 389.417969 C 869.890625 388.65625 868.683594 388.585938 867.816406 389.089844 C 877.171875 383.640625 889.660156 376.398438 899.015625 370.953125 " fill-opacity="1" fill-rule="nonzero"/><path fill="#2a3996" d="M 860.984375 377.402344 L 892.183594 359.265625 C 894.8125 357.742188 898.445312 357.96875 902.4375 360.265625 L 871.222656 378.386719 C 867.246094 376.085938 863.597656 375.863281 860.984375 377.402344 " fill-opacity="1" fill-rule="nonzero"/><path fill="#2a3996" d="M 870.445312 482.84375 L 901.660156 464.726562 L 1007.203125 525.652344 L 976.007812 543.773438 L 870.445312 482.84375 " fill-opacity="1" fill-rule="nonzero"/><path fill="#6979c5" d="M 865.671875 469.050781 L 896.871094 450.929688 L 1012.046875 517.390625 L 980.832031 535.523438 L 865.671875 469.050781 " fill-opacity="1" fill-rule="nonzero"/><path fill="#2a3996" d="M 870.167969 460.613281 L 901.382812 442.476562 L 1007.550781 503.765625 L 976.351562 521.882812 L 870.167969 460.613281 " fill-opacity="1" fill-rule="nonzero"/><path fill="#6979c5" d="M 944.980469 434.523438 C 944.980469 437.546875 947.125 441.28125 949.773438 442.820312 L 918.574219 460.941406 C 915.929688 459.417969 913.785156 455.683594 913.785156 452.640625 C 924.175781 446.609375 934.589844 440.558594 944.980469 434.523438 C 934.589844 440.558594 924.175781 446.609375 913.785156 452.640625 C 913.785156 451.136719 914.320312 450.082031 915.183594 449.582031 L 946.382812 431.464844 C 945.519531 431.964844 944.980469 433.019531 944.980469 434.523438 " fill-opacity="1" fill-rule="nonzero"/><path fill="#6979c5" d="M 918.574219 460.941406 L 949.773438 442.820312 L 959.371094 448.355469 L 928.171875 466.492188 L 918.574219 460.941406 " fill-opacity="1" fill-rule="nonzero"/><path fill="#2a3996" d="M 915.183594 449.582031 L 946.382812 431.464844 C 947.265625 430.945312 948.476562 431.011719 949.808594 431.792969 L 918.609375 449.910156 C 917.277344 449.148438 916.066406 449.082031 915.183594 449.582031 " fill-opacity="1" fill-rule="nonzero"/><path fill="#6979c5" d="M 959.371094 448.355469 C 960.703125 449.113281 961.894531 449.183594 962.777344 448.683594 L 931.578125 466.800781 C 930.695312 467.320312 929.503906 467.25 928.171875 466.492188 C 937.527344 461.042969 950.015625 453.800781 959.371094 448.355469 " fill-opacity="1" fill-rule="nonzero"/><path fill="#3c83cc" d="M 1007.1875 536.664062 C 1011.183594 538.984375 1014.796875 539.191406 1017.40625 537.667969 L 986.210938 555.789062 C 983.597656 557.308594 979.984375 557.101562 975.972656 554.800781 C 985.34375 549.355469 997.8125 542.113281 1007.1875 536.664062 " fill-opacity="1" fill-rule="nonzero"/><path fill="#2a3996" d="M 1010.628906 525.980469 L 979.414062 544.101562 C 978.550781 544.617188 977.339844 544.550781 976.007812 543.773438 L 1007.203125 525.652344 C 1008.535156 526.414062 1009.746094 526.484375 1010.628906 525.980469 " fill-opacity="1" fill-rule="nonzero"/><path fill="#2a3996" d="M 918.609375 449.910156 L 949.808594 431.792969 L 959.40625 437.324219 L 928.207031 455.460938 L 918.609375 449.910156 " fill-opacity="1" fill-rule="nonzero"/><path fill="#2a3996" d="M 928.207031 455.460938 C 930.835938 456.980469 932.980469 460.699219 932.980469 463.722656 C 932.960938 466.765625 930.816406 468.011719 928.171875 466.492188 L 918.574219 460.941406 C 915.929688 459.417969 913.785156 455.683594 913.785156 452.640625 C 913.800781 449.617188 915.960938 448.390625 918.609375 449.910156 L 928.207031 455.460938 " fill-opacity="1" fill-rule="nonzero"/><path fill="#2a3996" d="M 962.777344 448.683594 L 931.578125 466.800781 C 932.445312 466.300781 932.980469 465.246094 932.980469 463.722656 C 932.980469 460.699219 930.835938 456.980469 928.207031 455.460938 L 959.40625 437.324219 C 962.050781 438.863281 964.195312 442.5625 964.179688 445.605469 C 964.179688 447.109375 963.640625 448.179688 962.777344 448.683594 " fill-opacity="1" fill-rule="nonzero"/><path fill="#6979c5" d="M 1010.628906 525.980469 L 979.414062 544.101562 C 980.277344 543.597656 980.8125 542.542969 980.8125 541.039062 L 1012.03125 522.902344 C 1012.011719 524.425781 1011.476562 525.480469 1010.628906 525.980469 " fill-opacity="1" fill-rule="nonzero"/><path fill="#6979c5" d="M 871.207031 389.417969 L 902.40625 371.28125 L 1006.996094 431.652344 L 975.800781 449.789062 L 871.207031 389.417969 " fill-opacity="1" fill-rule="nonzero"/><path fill="#2a3996" d="M 871.222656 378.386719 L 902.4375 360.265625 L 928.519531 375.324219 L 897.320312 393.445312 L 871.222656 378.386719 " fill-opacity="1" fill-rule="nonzero"/><path fill="#6979c5" d="M 980.832031 535.523438 L 1012.046875 517.390625 L 1012.03125 522.902344 L 980.8125 541.039062 L 980.832031 535.523438 " fill-opacity="1" fill-rule="nonzero"/><path fill="#6979c5" d="M 980.832031 535.523438 L 980.8125 541.039062 C 980.8125 544.066406 978.652344 545.292969 976.007812 543.773438 L 870.445312 482.84375 C 867.800781 481.308594 865.65625 477.605469 865.65625 474.5625 L 865.671875 469.050781 L 980.832031 535.523438 " fill-opacity="1" fill-rule="nonzero"/><path fill="#3c83cc" d="M 999.976562 563.136719 L 1031.191406 545.015625 C 1031.171875 548.042969 1033.316406 551.757812 1035.964844 553.28125 L 1004.765625 571.417969 C 1002.121094 569.878906 999.976562 566.179688 999.976562 563.136719 " fill-opacity="1" fill-rule="nonzero"/><path fill="#3c83cc" d="M 989.582031 551.601562 L 1020.78125 533.484375 L 1031.207031 539.484375 L 999.992188 557.621094 L 989.582031 551.601562 " fill-opacity="1" fill-rule="nonzero"/><path fill="#2a3996" d="M 1017.40625 537.667969 L 986.210938 555.789062 C 987.699219 554.941406 988.855469 553.523438 989.582031 551.601562 C 990.117188 550.1875 990.414062 548.507812 990.414062 546.574219 L 1021.609375 528.453125 C 1021.609375 530.371094 1021.316406 532.066406 1020.78125 533.484375 C 1020.054688 535.386719 1018.894531 536.804688 1017.40625 537.667969 " fill-opacity="1" fill-rule="nonzero"/><path fill="#3c83cc" d="M 999.976562 563.136719 C 999.976562 566.179688 1002.121094 569.878906 1004.765625 571.417969 L 975.972656 554.800781 C 982.25 558.414062 987.578125 556.875 989.582031 551.601562 L 999.992188 557.621094 L 999.976562 563.136719 " fill-opacity="1" fill-rule="nonzero"/><path fill="#2a3996" d="M 990.445312 535.558594 L 1021.644531 517.421875 L 1021.609375 528.453125 L 990.414062 546.574219 L 990.445312 535.558594 " fill-opacity="1" fill-rule="nonzero"/><path fill="#2a3996" d="M 976.351562 521.882812 L 1007.550781 503.765625 L 1016.871094 509.140625 L 985.675781 527.261719 L 976.351562 521.882812 " fill-opacity="1" fill-rule="nonzero"/><path fill="#2a3996" d="M 986.695312 517.09375 L 1017.910156 498.976562 L 1017.21875 509.367188 L 986.019531 527.484375 L 986.695312 517.09375 " fill-opacity="1" fill-rule="nonzero"/><path fill="#2a3996" d="M 985.675781 527.261719 L 1016.871094 509.140625 C 1016.992188 509.210938 1017.113281 509.28125 1017.21875 509.367188 L 986.019531 527.484375 C 985.898438 527.417969 985.796875 527.328125 985.675781 527.261719 " fill-opacity="1" fill-rule="nonzero"/><path fill="#6979c5" d="M 977.113281 510.800781 L 1008.3125 492.664062 L 1007.550781 503.765625 L 976.351562 521.882812 L 977.113281 510.800781 " fill-opacity="1" fill-rule="nonzero"/><path fill="#2a3996" d="M 986.019531 527.484375 L 1017.21875 509.367188 C 1019.707031 511.007812 1021.664062 514.5 1021.644531 517.421875 L 990.445312 535.558594 C 990.464844 532.636719 988.511719 529.128906 986.019531 527.484375 " fill-opacity="1" fill-rule="nonzero"/><path fill="#6979c5" d="M 978.460938 508.191406 L 1009.660156 490.054688 C 1008.898438 490.503906 1008.398438 491.402344 1008.3125 492.664062 L 977.113281 510.800781 C 977.199219 509.523438 977.703125 508.640625 978.460938 508.191406 " fill-opacity="1" fill-rule="nonzero"/><path fill="#6979c5" d="M 982.957031 497.992188 L 1014.15625 479.855469 L 1013.449219 490.503906 L 982.25 508.625 L 982.957031 497.992188 " fill-opacity="1" fill-rule="nonzero"/><path fill="#2a3996" d="M 978.496094 508.140625 L 1009.695312 490.019531 C 1010.613281 489.484375 1011.855469 489.570312 1013.207031 490.347656 C 1013.292969 490.402344 1013.359375 490.433594 1013.449219 490.503906 L 982.25 508.625 C 982.164062 508.570312 982.078125 508.519531 982.007812 508.46875 C 980.660156 507.707031 979.414062 507.621094 978.496094 508.140625 " fill-opacity="1" fill-rule="nonzero"/><path fill="#2a3996" d="M 985.519531 512.375 L 1016.714844 494.257812 C 1017.582031 495.847656 1018.011719 497.542969 1017.910156 498.976562 L 986.695312 517.09375 C 986.796875 515.660156 986.382812 513.984375 985.519531 512.375 " fill-opacity="1" fill-rule="nonzero"/><path fill="#2a3996" d="M 982.25 508.625 C 983.511719 509.46875 984.707031 510.800781 985.519531 512.375 C 986.382812 513.984375 986.796875 515.660156 986.695312 517.09375 L 986.019531 527.484375 C 985.898438 527.417969 985.796875 527.328125 985.675781 527.261719 L 976.351562 521.882812 L 977.113281 510.800781 C 977.304688 507.964844 979.515625 507.03125 982.007812 508.46875 C 982.078125 508.519531 982.164062 508.570312 982.25 508.625 " fill-opacity="1" fill-rule="nonzero"/><path fill="#2a3996" d="M 982.25 508.625 L 1013.449219 490.503906 C 1014.710938 491.335938 1015.921875 492.683594 1016.714844 494.257812 L 985.519531 512.375 C 984.707031 510.800781 983.511719 509.46875 982.25 508.625 " fill-opacity="1" fill-rule="nonzero"/><path fill="#6dc1cf" d="M 982.957031 497.992188 L 1014.15625 479.855469 L 1014.449219 480.078125 L 983.253906 498.199219 L 982.957031 497.992188 " fill-opacity="1" fill-rule="nonzero"/><path fill="#6979c5" d="M 979.878906 486.875 L 1011.078125 468.738281 C 1010.300781 469.203125 1009.78125 470.121094 1009.710938 471.453125 C 1009.523438 474.355469 1011.511719 478.160156 1014.15625 479.855469 L 982.957031 497.992188 C 980.3125 496.296875 978.324219 492.476562 978.515625 489.570312 C 978.582031 488.238281 979.101562 487.324219 979.878906 486.875 " fill-opacity="1" fill-rule="nonzero"/><path fill="#6dc1cf" d="M 1014.449219 480.078125 C 1015.800781 480.855469 1017.027344 480.925781 1017.910156 480.425781 L 986.695312 498.542969 C 985.828125 499.0625 984.585938 498.976562 983.253906 498.199219 C 992.609375 492.769531 1005.09375 485.527344 1014.449219 480.078125 " fill-opacity="1" fill-rule="nonzero"/><path fill="#6979c5" d="M 984.308594 476.742188 L 1015.503906 458.605469 L 1014.847656 469.257812 L 983.632812 487.394531 L 984.308594 476.742188 " fill-opacity="1" fill-rule="nonzero"/><path fill="#2a3996" d="M 979.878906 486.875 L 1011.078125 468.738281 C 1011.976562 468.21875 1013.207031 468.304688 1014.539062 469.066406 C 1014.625 469.136719 1014.746094 469.1875 1014.847656 469.257812 L 983.632812 487.394531 C 983.546875 487.324219 983.425781 487.253906 983.320312 487.203125 C 982.007812 486.425781 980.761719 486.355469 979.878906 486.875 " fill-opacity="1" fill-rule="nonzero"/><path fill="#2a3996" d="M 1017.910156 480.425781 L 986.695312 498.542969 C 987.488281 498.09375 987.992188 497.160156 988.058594 495.847656 C 988.269531 492.875 986.261719 489.121094 983.632812 487.394531 L 1014.847656 469.257812 C 1017.460938 470.984375 1019.464844 474.738281 1019.277344 477.726562 C 1019.207031 479.042969 1018.6875 479.957031 1017.910156 480.425781 " fill-opacity="1" fill-rule="nonzero"/><path fill="#6dc1cf" d="M 1000.769531 518.582031 L 1031.96875 500.464844 L 1034.390625 529.195312 L 1003.191406 547.332031 L 1000.769531 518.582031 " fill-opacity="1" fill-rule="nonzero"/><path fill="#6dc1cf" d="M 1034.390625 529.195312 C 1032.382812 531.53125 1031.207031 535.023438 1031.207031 539.484375 L 999.992188 557.621094 C 1000.011719 553.140625 1001.1875 549.667969 1003.191406 547.332031 C 1012.546875 541.886719 1025.035156 534.644531 1034.390625 529.195312 " fill-opacity="1" fill-rule="nonzero"/><path fill="#3c83cc" d="M 1012.394531 557.015625 L 1043.609375 538.878906 C 1041.878906 539.882812 1040.804688 542.007812 1040.789062 545.035156 L 1009.589844 563.152344 C 1009.609375 560.144531 1010.679688 558.019531 1012.394531 557.015625 " fill-opacity="1" fill-rule="nonzero"/><path fill="#3c83cc" d="M 1036.792969 527.191406 C 1035.914062 527.710938 1035.097656 528.382812 1034.390625 529.195312 L 1003.191406 547.332031 C 1003.902344 546.519531 1004.695312 545.847656 1005.597656 545.328125 C 1014.953125 539.882812 1027.4375 532.636719 1036.792969 527.191406 " fill-opacity="1" fill-rule="nonzero"/><path fill="#3c83cc" d="M 1009.589844 563.152344 L 1040.789062 545.035156 L 1059.984375 556.117188 L 1028.789062 574.234375 L 1009.589844 563.152344 " fill-opacity="1" fill-rule="nonzero"/><path fill="#cecdcb" d="M 1012.394531 557.015625 L 1043.609375 538.878906 C 1045.335938 537.875 1047.757812 538.015625 1050.421875 539.535156 L 1019.222656 557.671875 C 1016.5625 556.132812 1014.140625 555.996094 1012.394531 557.015625 " fill-opacity="1" fill-rule="nonzero"/><path fill="#cecdcb" d="M 1019.222656 557.671875 L 1050.421875 539.535156 C 1055.730469 542.597656 1060.003906 550.03125 1059.984375 556.117188 L 1028.789062 574.234375 C 1028.804688 568.167969 1024.515625 560.730469 1019.222656 557.671875 " fill-opacity="1" fill-rule="nonzero"/><g clip-path="url(#234a5ffb38)"><path fill="#3c83cc" d="M 1009.589844 563.152344 L 1028.789062 574.234375 C 1028.804688 568.167969 1024.515625 560.730469 1019.222656 557.671875 C 1013.933594 554.628906 1009.609375 557.085938 1009.589844 563.152344 Z M 1019.257812 546.640625 C 1029.84375 552.761719 1038.417969 567.613281 1038.386719 579.765625 L 1038.367188 585.300781 C 1038.351562 588.324219 1036.207031 589.570312 1033.558594 588.03125 L 1009.554688 574.183594 L 1004.765625 571.417969 C 1002.121094 569.878906 999.976562 566.179688 999.976562 563.136719 L 999.992188 557.621094 C 1000.011719 553.140625 1001.1875 549.667969 1003.191406 547.332031 C 1005.335938 544.84375 1008.449219 543.683594 1012.097656 544.117188 C 1014.3125 544.359375 1016.734375 545.1875 1019.257812 546.640625 " fill-opacity="1" fill-rule="nonzero"/></g><path fill="#6dc1cf" d="M 1000.769531 518.582031 L 1003.191406 547.332031 C 1001.1875 549.667969 1000.011719 553.140625 999.992188 557.621094 L 989.582031 551.601562 C 990.117188 550.1875 990.414062 548.507812 990.414062 546.574219 L 990.445312 535.558594 C 990.464844 532.636719 988.511719 529.128906 986.019531 527.484375 L 986.695312 517.09375 C 986.796875 515.660156 986.382812 513.984375 985.519531 512.375 C 984.707031 510.800781 983.511719 509.46875 982.265625 508.640625 L 982.957031 497.992188 L 983.253906 498.199219 C 985.796875 499.667969 987.921875 498.648438 988.058594 495.847656 C 988.269531 492.875 986.261719 489.121094 983.652344 487.410156 L 984.34375 476.761719 C 984.480469 476.863281 984.636719 476.949219 984.773438 477.035156 C 985.984375 477.726562 987.125 477.796875 987.972656 477.332031 C 994.976562 490.539062 999.613281 504.890625 1000.769531 518.582031 " fill-opacity="1" fill-rule="nonzero"/><path fill="#3c83cc" d="M 1019.257812 546.640625 C 1020.675781 547.472656 1022.042969 548.441406 1023.375 549.546875 L 1031.191406 545.015625 L 1031.207031 539.484375 L 1019.050781 546.539062 C 1019.121094 546.574219 1019.1875 546.605469 1019.257812 546.640625 " fill-opacity="1" fill-rule="nonzero"/><path fill="#2a3996" d="M 897.320312 393.445312 L 928.519531 375.324219 L 941.472656 382.792969 L 910.273438 400.929688 L 897.320312 393.445312 " fill-opacity="1" fill-rule="nonzero"/><path fill="#2a3996" d="M 980.8125 541.039062 L 980.832031 535.523438 L 865.671875 469.050781 L 865.65625 474.5625 C 865.65625 477.605469 867.800781 481.308594 870.445312 482.84375 L 976.007812 543.773438 C 978.652344 545.292969 980.8125 544.066406 980.8125 541.039062 Z M 986.019531 527.484375 C 988.511719 529.128906 990.464844 532.636719 990.445312 535.558594 L 990.414062 546.574219 C 990.414062 548.507812 990.117188 550.1875 989.582031 551.601562 C 987.578125 556.875 982.25 558.414062 975.972656 554.800781 L 870.410156 493.875 C 864.152344 490.261719 858.839844 482.570312 856.871094 475.015625 C 856.351562 472.972656 856.058594 470.96875 856.074219 469.03125 L 856.09375 458 C 856.109375 455.097656 858.0625 453.851562 860.554688 455.078125 C 860.675781 455.132812 860.796875 455.183594 860.917969 455.253906 L 870.167969 460.613281 L 976.351562 521.882812 L 985.675781 527.261719 C 985.796875 527.328125 985.898438 527.417969 986.019531 527.484375 " fill-opacity="1" fill-rule="nonzero"/><path fill="#2a3996" d="M 910.273438 400.929688 L 941.472656 382.792969 L 967.984375 398.09375 L 936.785156 416.230469 L 910.273438 400.929688 " fill-opacity="1" fill-rule="nonzero"/><path fill="#2a3996" d="M 936.785156 416.230469 L 967.984375 398.09375 L 980.933594 405.582031 L 949.738281 423.699219 L 936.785156 416.230469 " fill-opacity="1" fill-rule="nonzero"/><path fill="#3c83cc" d="M 970.160156 397.109375 L 938.964844 415.230469 C 938.273438 415.644531 937.527344 415.972656 936.785156 416.230469 L 967.984375 398.09375 C 968.742188 397.835938 969.46875 397.507812 970.160156 397.109375 " fill-opacity="1" fill-rule="nonzero"/><g clip-path="url(#22c6ff9112)"><path fill="#3c83cc" d="M 1068.164062 570.242188 L 1036.96875 588.375 C 1037.832031 587.875 1038.367188 586.804688 1038.367188 585.300781 L 1069.566406 567.164062 C 1069.566406 568.683594 1069.03125 569.738281 1068.164062 570.242188 " fill-opacity="1" fill-rule="nonzero"/></g><path fill="#cecdcb" d="M 1019.222656 557.671875 C 1024.515625 560.730469 1028.804688 568.167969 1028.789062 574.234375 L 1009.589844 563.152344 C 1009.609375 557.085938 1013.933594 554.628906 1019.222656 557.671875 " fill-opacity="1" fill-rule="nonzero"/><g clip-path="url(#f39917d9ce)"><path fill="#3c83cc" d="M 1038.386719 579.765625 L 1069.582031 561.648438 L 1069.566406 567.164062 L 1038.367188 585.300781 L 1038.386719 579.765625 " fill-opacity="1" fill-rule="nonzero"/></g><path fill="#3c83cc" d="M 1010.316406 522.9375 L 1041.515625 504.800781 L 1043.296875 525.980469 L 1012.097656 544.117188 L 1010.316406 522.9375 " fill-opacity="1" fill-rule="nonzero"/><path fill="#3c83cc" d="M 1005.597656 545.328125 L 1036.792969 527.191406 C 1038.644531 526.121094 1040.839844 525.703125 1043.296875 525.980469 C 1045.511719 526.242188 1047.929688 527.070312 1050.457031 528.523438 L 1019.257812 546.640625 C 1016.734375 545.1875 1014.3125 544.359375 1012.097656 544.117188 C 1009.644531 543.824219 1007.429688 544.253906 1005.597656 545.328125 " fill-opacity="1" fill-rule="nonzero"/><path fill="#2a3996" d="M 983.632812 487.394531 C 986.261719 489.121094 988.269531 492.875 988.058594 495.847656 C 987.921875 498.648438 985.796875 499.667969 983.253906 498.199219 L 982.957031 497.992188 C 980.3125 496.296875 978.324219 492.476562 978.515625 489.570312 C 978.652344 486.734375 980.832031 485.75 983.320312 487.203125 C 983.425781 487.253906 983.546875 487.324219 983.632812 487.394531 " fill-opacity="1" fill-rule="nonzero"/><path fill="#3c83cc" d="M 908.25 346.800781 L 939.449219 328.679688 C 934.207031 331.742188 930.851562 338.898438 930.816406 349.046875 C 930.785156 360.527344 935.019531 373.128906 941.472656 382.792969 L 910.273438 400.929688 C 903.824219 391.265625 899.585938 378.664062 899.621094 367.183594 C 899.636719 357.035156 903.011719 349.859375 908.25 346.800781 " fill-opacity="1" fill-rule="nonzero"/><path fill="#6979c5" d="M 1015.488281 458.589844 C 1015.488281 458.589844 1015.503906 458.605469 1015.503906 458.605469 L 984.308594 476.742188 C 984.308594 476.726562 984.289062 476.726562 984.273438 476.726562 C 994.683594 470.675781 1005.09375 464.640625 1015.488281 458.589844 " fill-opacity="1" fill-rule="nonzero"/><path fill="#6979c5" d="M 1011.078125 450.1875 C 1010.941406 453.144531 1012.878906 456.894531 1015.488281 458.589844 C 1005.09375 464.640625 994.683594 470.675781 984.273438 476.726562 C 981.679688 475.03125 979.726562 471.261719 979.878906 468.324219 C 989.238281 462.878906 1001.722656 455.632812 1011.078125 450.1875 " fill-opacity="1" fill-rule="nonzero"/><g clip-path="url(#92f26a0382)"><path fill="#3c83cc" d="M 1019.257812 546.640625 L 1050.457031 528.523438 C 1061.039062 534.625 1069.617188 549.496094 1069.582031 561.648438 L 1038.386719 579.765625 C 1038.417969 567.613281 1029.84375 552.761719 1019.257812 546.640625 " fill-opacity="1" fill-rule="nonzero"/></g><path fill="#6dc1cf" d="M 984.34375 476.761719 L 1015.539062 458.625 C 1015.695312 458.726562 1015.835938 458.832031 1015.972656 458.902344 C 1017.183594 459.609375 1018.324219 459.660156 1019.171875 459.210938 L 987.972656 477.332031 C 987.125 477.796875 985.984375 477.726562 984.773438 477.035156 C 984.636719 476.949219 984.480469 476.863281 984.34375 476.761719 " fill-opacity="1" fill-rule="nonzero"/><path fill="#6dc1cf" d="M 987.972656 477.332031 L 1019.171875 459.210938 C 1026.175781 472.421875 1030.828125 486.769531 1031.96875 500.464844 L 1000.769531 518.582031 C 999.613281 504.890625 994.976562 490.539062 987.972656 477.332031 " fill-opacity="1" fill-rule="nonzero"/><path fill="#2a3996" d="M 1019.257812 459.160156 L 988.058594 477.296875 C 988.855469 476.828125 989.375 475.914062 989.480469 474.53125 L 1020.675781 456.394531 C 1020.589844 457.792969 1020.054688 458.710938 1019.257812 459.160156 " fill-opacity="1" fill-rule="nonzero"/><path fill="#3c83cc" d="M 1019.171875 459.210938 C 1019.207031 459.195312 1019.242188 459.175781 1019.257812 459.160156 L 988.058594 477.296875 C 988.027344 477.3125 988.007812 477.332031 987.972656 477.332031 C 997.347656 471.902344 1009.710938 464.46875 1019.171875 459.210938 " fill-opacity="1" fill-rule="nonzero"/><path fill="#6979c5" d="M 980.574219 458.070312 L 1011.769531 439.953125 L 1011.078125 450.1875 L 979.878906 468.324219 L 980.574219 458.070312 " fill-opacity="1" fill-rule="nonzero"/><path fill="#6979c5" d="M 1011.769531 439.65625 C 1011.769531 439.746094 1011.769531 439.847656 1011.769531 439.953125 L 980.574219 458.070312 C 980.574219 457.96875 980.574219 457.878906 980.574219 457.777344 C 990.964844 451.742188 1001.359375 445.691406 1011.769531 439.65625 " fill-opacity="1" fill-rule="nonzero"/><path fill="#6979c5" d="M 1011.769531 439.65625 C 1001.359375 445.691406 990.964844 451.742188 980.574219 457.777344 C 980.433594 454.804688 978.359375 451.257812 975.800781 449.789062 L 1006.996094 431.652344 C 1009.554688 433.140625 1011.648438 436.667969 1011.769531 439.65625 " fill-opacity="1" fill-rule="nonzero"/><path fill="#6979c5" d="M 928.171875 466.492188 C 930.816406 468.011719 932.960938 466.765625 932.980469 463.722656 C 932.980469 460.699219 930.835938 456.980469 928.207031 455.460938 L 918.609375 449.910156 C 915.960938 448.390625 913.800781 449.617188 913.785156 452.640625 C 913.785156 455.683594 915.929688 459.417969 918.574219 460.941406 Z M 984.308594 476.742188 L 983.632812 487.394531 C 983.546875 487.324219 983.425781 487.253906 983.320312 487.203125 C 980.832031 485.75 978.652344 486.734375 978.515625 489.570312 C 978.324219 492.476562 980.3125 496.296875 982.957031 497.992188 L 982.25 508.625 C 979.515625 507.03125 977.304688 507.964844 977.113281 510.800781 L 976.351562 521.882812 L 870.167969 460.613281 L 866.382812 392.320312 C 866.382812 389.121094 868.5625 387.894531 871.207031 389.417969 L 975.800781 449.789062 C 978.445312 451.3125 980.589844 455.046875 980.574219 458.070312 L 979.878906 468.324219 C 979.726562 471.28125 981.679688 475.066406 984.308594 476.742188 " fill-opacity="1" fill-rule="nonzero"/><path fill="#cecdcb" d="M 978.808594 376.742188 C 978.773438 386.890625 975.417969 394.050781 970.160156 397.109375 L 938.964844 415.230469 C 944.203125 412.1875 947.574219 405.011719 947.59375 394.878906 C 958.003906 388.828125 968.398438 382.792969 978.808594 376.742188 " fill-opacity="1" fill-rule="nonzero"/><path fill="#2a3996" d="M 990.066406 465.28125 L 1021.28125 447.144531 L 1020.675781 456.394531 L 989.480469 474.53125 L 990.066406 465.28125 " fill-opacity="1" fill-rule="nonzero"/><path fill="#2a3996" d="M 990.117188 464.535156 L 1021.316406 446.402344 L 1021.28125 447.144531 L 990.066406 465.28125 L 990.117188 464.535156 " fill-opacity="1" fill-rule="nonzero"/><path fill="#3c83cc" d="M 990.066406 465.28125 L 1021.28125 447.144531 C 1032.382812 465.054688 1039.890625 485.492188 1041.515625 504.800781 L 1010.316406 522.9375 C 1008.691406 503.625 1001.1875 483.175781 990.066406 465.28125 " fill-opacity="1" fill-rule="nonzero"/><path fill="#3c83cc" d="M 1003.191406 547.332031 L 1000.769531 518.582031 C 999.613281 504.890625 994.976562 490.539062 987.972656 477.332031 C 988.804688 476.898438 989.375 475.964844 989.460938 474.632812 L 990.066406 465.28125 C 1001.1875 483.175781 1008.691406 503.625 1010.316406 522.9375 L 1012.097656 544.117188 C 1008.449219 543.683594 1005.335938 544.84375 1003.191406 547.332031 " fill-opacity="1" fill-rule="nonzero"/><path fill="#2a3996" d="M 990.171875 464 L 1021.367188 445.863281 L 1021.316406 446.402344 L 990.117188 464.535156 L 990.171875 464 " fill-opacity="1" fill-rule="nonzero"/><path fill="#2a3996" d="M 990.171875 463.601562 L 1021.367188 445.484375 L 1021.367188 445.863281 L 990.171875 464 L 990.171875 463.601562 " fill-opacity="1" fill-rule="nonzero"/><path fill="#2a3996" d="M 949.738281 423.699219 L 980.933594 405.582031 L 1007.03125 420.640625 L 975.832031 438.757812 L 949.738281 423.699219 " fill-opacity="1" fill-rule="nonzero"/><path fill="#cecdcb" d="M 939.449219 328.679688 C 943.632812 326.242188 949.027344 326.433594 954.890625 329.820312 L 923.691406 347.941406 C 917.832031 344.570312 912.433594 344.378906 908.25 346.800781 C 917.605469 341.371094 930.09375 334.109375 939.449219 328.679688 " fill-opacity="1" fill-rule="nonzero"/><path fill="#2a3996" d="M 975.832031 438.757812 L 1007.03125 420.640625 C 1014.933594 425.203125 1021.351562 436.304688 1021.367188 445.484375 L 990.171875 463.601562 C 990.152344 454.421875 983.738281 443.324219 975.832031 438.757812 " fill-opacity="1" fill-rule="nonzero"/><path fill="#2a3996" d="M 975.832031 438.757812 C 983.738281 443.324219 990.152344 454.421875 990.171875 463.601562 L 990.171875 464 L 990.117188 464.535156 L 990.066406 465.28125 L 989.480469 474.53125 C 989.375 475.964844 988.804688 476.898438 987.972656 477.332031 C 987.125 477.796875 985.984375 477.726562 984.773438 477.035156 C 984.636719 476.949219 984.480469 476.863281 984.34375 476.761719 C 981.679688 475.066406 979.726562 471.28125 979.878906 468.324219 L 980.574219 458.347656 C 980.589844 455.046875 978.445312 451.3125 975.800781 449.789062 L 871.207031 389.417969 C 868.5625 387.894531 866.382812 389.121094 866.382812 392.113281 L 870.167969 460.613281 L 860.917969 455.253906 C 860.796875 455.183594 860.675781 455.132812 860.554688 455.078125 L 858.117188 411.097656 L 857.148438 393.703125 L 856.816406 387.914062 C 856.785156 387.222656 856.785156 386.789062 856.785156 386.617188 C 856.800781 377.46875 863.320312 373.820312 871.222656 378.386719 L 897.320312 393.445312 L 910.273438 400.929688 L 936.785156 416.230469 L 949.738281 423.699219 L 975.832031 438.757812 " fill-opacity="1" fill-rule="nonzero"/><path fill="#3c83cc" d="M 901.488281 335.148438 L 932.6875 317.027344 C 938.636719 313.570312 946.417969 313.882812 954.925781 318.792969 L 923.726562 336.925781 C 915.21875 332.015625 907.4375 331.707031 901.488281 335.148438 " fill-opacity="1" fill-rule="nonzero"/><path fill="#cecdcb" d="M 923.691406 347.941406 C 936.921875 355.582031 947.644531 376.640625 947.59375 394.878906 C 947.558594 406.359375 943.269531 414.019531 936.785156 416.230469 L 910.273438 400.929688 C 903.824219 391.265625 899.585938 378.664062 899.621094 367.183594 C 899.671875 348.941406 910.464844 340.316406 923.691406 347.941406 " fill-opacity="1" fill-rule="nonzero"/><path fill="#cecdcb" d="M 954.890625 329.820312 C 968.121094 337.464844 978.859375 358.519531 978.808594 376.742188 C 968.398438 382.792969 958.003906 388.828125 947.59375 394.878906 C 947.644531 376.640625 936.921875 355.582031 923.691406 347.941406 C 933.050781 342.511719 945.535156 335.269531 954.890625 329.820312 " fill-opacity="1" fill-rule="nonzero"/><path fill="#3c83cc" d="M 923.726562 336.925781 L 954.925781 318.792969 C 973.445312 329.492188 988.457031 357.96875 988.390625 382.277344 C 988.371094 392.703125 985.570312 400.6875 980.933594 405.582031 L 949.738281 423.699219 C 954.371094 418.824219 957.15625 410.820312 957.191406 400.414062 C 957.261719 376.085938 942.25 347.613281 923.726562 336.925781 " fill-opacity="1" fill-rule="nonzero"/><path fill="#3c83cc" d="M 923.726562 336.925781 C 942.25 347.613281 957.261719 376.085938 957.191406 400.414062 C 957.15625 410.820312 954.371094 418.824219 949.738281 423.699219 L 936.785156 416.230469 C 943.269531 414.019531 947.558594 406.359375 947.59375 394.878906 C 947.644531 376.640625 936.921875 355.582031 923.691406 347.941406 C 910.464844 340.316406 899.671875 348.941406 899.621094 367.183594 C 899.585938 378.664062 903.824219 391.265625 910.273438 400.929688 L 897.320312 393.445312 C 892.71875 383.226562 889.988281 372.058594 890.023438 361.632812 C 890.089844 337.324219 905.207031 326.242188 923.726562 336.925781 " fill-opacity="1" fill-rule="nonzero"/><path fill="#2a3996" d="M 962.792969 299.617188 L 931.597656 317.738281 C 932.183594 317.410156 932.617188 316.785156 932.839844 315.921875 L 964.039062 297.804688 C 963.816406 298.667969 963.382812 299.273438 962.792969 299.617188 " fill-opacity="1" fill-rule="nonzero"/><path fill="#2a3996" d="M 942.5625 277.367188 L 973.757812 259.25 L 964.039062 297.804688 L 932.839844 315.921875 L 942.5625 277.367188 " fill-opacity="1" fill-rule="nonzero"/><path fill="#2a3996" d="M 934.519531 267.496094 L 965.71875 249.359375 C 966.597656 248.839844 967.828125 248.945312 969.105469 249.671875 L 937.910156 267.804688 C 936.628906 267.0625 935.402344 266.976562 934.519531 267.496094 " fill-opacity="1" fill-rule="nonzero"/><path fill="#2a3996" d="M 937.910156 267.804688 L 969.105469 249.671875 C 969.503906 249.914062 969.902344 250.1875 970.300781 250.535156 C 972.859375 252.746094 974.433594 256.65625 973.757812 259.25 L 942.5625 277.367188 C 943.21875 274.792969 941.660156 270.882812 939.085938 268.671875 C 938.703125 268.324219 938.289062 268.03125 937.910156 267.804688 " fill-opacity="1" fill-rule="nonzero"/><path fill="#2a3996" d="M 937.910156 267.804688 C 938.289062 268.03125 938.703125 268.324219 939.085938 268.671875 C 941.660156 270.882812 943.21875 274.792969 942.5625 277.367188 L 932.839844 315.921875 C 932.289062 318.117188 930.332031 318.652344 928.191406 317.410156 C 927.792969 317.199219 927.410156 316.925781 927.011719 316.578125 C 924.4375 314.347656 922.898438 310.457031 923.539062 307.863281 L 933.257812 269.3125 C 933.808594 267.132812 935.765625 266.5625 937.910156 267.804688 " fill-opacity="1" fill-rule="nonzero"/><path fill="#2a3996" d="M 954.007812 311.894531 L 985.222656 293.773438 C 985.449219 293.636719 985.707031 293.53125 985.984375 293.480469 L 954.789062 311.617188 C 954.511719 311.667969 954.25 311.753906 954.007812 311.894531 " fill-opacity="1" fill-rule="nonzero"/><path fill="#2a3996" d="M 954.789062 311.617188 L 985.984375 293.480469 L 994.40625 291.890625 L 963.191406 310.007812 L 954.789062 311.617188 " fill-opacity="1" fill-rule="nonzero"/><path fill="#2a3996" d="M 954.09375 289.832031 L 985.292969 271.695312 C 986.210938 271.160156 987.4375 271.316406 988.699219 272.042969 L 957.503906 290.160156 C 956.238281 289.433594 955.011719 289.296875 954.09375 289.832031 " fill-opacity="1" fill-rule="nonzero"/><path fill="#2a3996" d="M 957.503906 290.160156 L 988.699219 272.042969 C 989.617188 272.5625 990.550781 273.40625 991.363281 274.496094 L 960.164062 292.632812 C 959.335938 291.527344 958.417969 290.695312 957.503906 290.160156 " fill-opacity="1" fill-rule="nonzero"/><path fill="#2a3996" d="M 960.164062 292.632812 L 991.363281 274.496094 L 1005.734375 293.84375 L 974.535156 311.960938 L 960.164062 292.632812 " fill-opacity="1" fill-rule="nonzero"/><path fill="#2a3996" d="M 1006.445312 302.746094 L 975.246094 320.867188 C 976.128906 320.347656 976.648438 319.257812 976.648438 317.769531 C 976.664062 315.9375 975.851562 313.761719 974.535156 311.960938 L 1005.734375 293.84375 C 1007.066406 295.625 1007.863281 297.820312 1007.863281 299.652344 C 1007.84375 301.121094 1007.34375 302.230469 1006.445312 302.746094 " fill-opacity="1" fill-rule="nonzero"/><path fill="#2a3996" d="M 957.503906 290.160156 C 958.417969 290.695312 959.335938 291.527344 960.164062 292.632812 L 974.535156 311.960938 C 975.851562 313.761719 976.664062 315.9375 976.648438 317.769531 C 976.648438 319.621094 975.832031 320.882812 974.503906 321.144531 L 960.078125 323.855469 C 959.25 323.996094 958.332031 323.769531 957.414062 323.253906 C 955.859375 322.351562 954.355469 320.605469 953.421875 318.480469 C 951.949219 315.089844 952.554688 312.015625 954.789062 311.617188 L 963.191406 310.007812 L 954.820312 298.738281 C 952.609375 295.761719 952.019531 291.992188 953.507812 290.316406 C 954.425781 289.261719 955.945312 289.261719 957.503906 290.160156 " fill-opacity="1" fill-rule="nonzero"/><path fill="#ffffff" d="M 1019.328125 557.464844 C 1024.621094 560.507812 1028.925781 567.957031 1028.910156 574.027344 L 1009.710938 562.945312 C 1009.730469 556.875 1014.035156 554.402344 1019.328125 557.464844 " fill-opacity="1" fill-rule="nonzero"/><path fill="#5eb6e9" d="M 1000.097656 562.925781 C 1000.078125 565.96875 1002.222656 569.671875 1004.871094 571.191406 L 976.09375 554.578125 C 982.335938 558.191406 987.699219 556.667969 989.703125 551.394531 L 1000.113281 557.414062 L 1000.097656 562.925781 " fill-opacity="1" fill-rule="nonzero"/><g clip-path="url(#bd38406758)"><path fill="#5eb6e9" d="M 1009.710938 562.945312 L 1028.910156 574.027344 C 1028.925781 567.957031 1024.621094 560.507812 1019.328125 557.464844 C 1014.035156 554.402344 1009.730469 556.875 1009.710938 562.945312 Z M 1019.363281 546.433594 C 1029.945312 552.554688 1038.523438 567.40625 1038.488281 579.558594 L 1038.488281 585.09375 C 1038.472656 588.117188 1036.308594 589.34375 1033.664062 587.824219 L 1009.675781 573.976562 L 1004.871094 571.191406 C 1002.222656 569.671875 1000.078125 565.96875 1000.097656 562.925781 L 1000.113281 557.414062 C 1000.132812 552.933594 1001.308594 549.460938 1003.296875 547.125 C 1005.457031 544.636719 1008.554688 543.476562 1012.203125 543.894531 C 1014.417969 544.152344 1016.835938 544.980469 1019.363281 546.433594 " fill-opacity="1" fill-rule="nonzero"/></g><path fill="#5eb6e9" d="M 856.972656 474.789062 C 858.945312 482.34375 864.273438 490.039062 870.515625 493.652344 L 841.738281 477.035156 C 840.371094 476.257812 839.074219 474.839844 838.175781 473.164062 C 837.257812 471.46875 836.828125 469.671875 836.980469 468.183594 L 841.289062 425.101562 C 842.777344 410.179688 848.570312 399.425781 857.269531 393.496094 L 858.21875 410.871094 C 854.292969 416.042969 851.683594 423.0625 850.816406 431.757812 L 847.097656 469.082031 L 856.972656 474.789062 " fill-opacity="1" fill-rule="nonzero"/><path fill="#a9e3f2" d="M 850.816406 431.757812 C 851.683594 423.0625 854.292969 416.042969 858.21875 410.871094 L 860.675781 454.855469 C 858.183594 453.628906 856.214844 454.871094 856.195312 457.792969 L 856.160156 468.808594 C 856.160156 470.742188 856.453125 472.765625 856.972656 474.789062 L 847.097656 469.082031 L 850.816406 431.757812 " fill-opacity="1" fill-rule="nonzero"/><path fill="#3c56af" d="M 928.3125 455.234375 C 930.957031 456.773438 933.101562 460.492188 933.101562 463.515625 C 933.082031 466.558594 930.921875 467.785156 928.277344 466.265625 L 918.679688 460.734375 C 916.03125 459.195312 913.886719 455.476562 913.90625 452.433594 C 913.90625 449.410156 916.066406 448.179688 918.710938 449.703125 L 928.3125 455.234375 " fill-opacity="1" fill-rule="nonzero"/><path fill="#a3aedf" d="M 980.953125 535.316406 L 980.933594 540.832031 C 980.917969 543.859375 978.757812 545.085938 976.109375 543.5625 L 870.550781 482.636719 C 867.921875 481.097656 865.757812 477.382812 865.757812 474.355469 L 865.777344 468.839844 L 980.953125 535.316406 " fill-opacity="1" fill-rule="nonzero"/><path fill="#3c56af" d="M 980.933594 540.832031 L 980.953125 535.316406 L 865.777344 468.839844 L 865.757812 474.355469 C 865.757812 477.382812 867.921875 481.097656 870.550781 482.636719 L 976.109375 543.5625 C 978.757812 545.085938 980.917969 543.859375 980.933594 540.832031 Z M 986.125 527.277344 C 988.613281 528.921875 990.566406 532.429688 990.566406 535.351562 L 990.535156 546.363281 C 990.535156 548.300781 990.238281 549.976562 989.703125 551.394531 C 987.699219 556.667969 982.335938 558.191406 976.09375 554.578125 L 870.515625 493.652344 C 864.273438 490.039062 858.945312 482.34375 856.972656 474.789062 C 856.453125 472.765625 856.160156 470.742188 856.160156 468.808594 L 856.195312 457.792969 C 856.214844 454.871094 858.183594 453.628906 860.675781 454.855469 C 860.777344 454.90625 860.898438 454.976562 861.019531 455.046875 L 870.273438 460.386719 L 976.457031 521.675781 L 985.777344 527.054688 C 985.898438 527.121094 986.019531 527.191406 986.125 527.277344 " fill-opacity="1" fill-rule="nonzero"/><path fill="#3c56af" d="M 982.371094 508.414062 C 983.617188 509.246094 984.808594 510.59375 985.640625 512.167969 C 986.488281 513.777344 986.917969 515.453125 986.796875 516.886719 L 986.125 527.277344 C 986.019531 527.191406 985.898438 527.121094 985.777344 527.054688 L 976.457031 521.675781 L 977.21875 510.578125 C 977.40625 507.757812 979.621094 506.824219 982.113281 508.261719 C 982.199219 508.3125 982.285156 508.363281 982.371094 508.414062 " fill-opacity="1" fill-rule="nonzero"/><path fill="#3c56af" d="M 983.753906 487.183594 C 986.367188 488.898438 988.371094 492.664062 988.164062 495.640625 C 988.027344 498.421875 985.898438 499.460938 983.355469 497.992188 L 983.0625 497.785156 C 980.433594 496.089844 978.429688 492.269531 978.636719 489.363281 C 978.773438 486.527344 980.933594 485.542969 983.441406 486.996094 C 983.546875 487.046875 983.652344 487.117188 983.753906 487.183594 " fill-opacity="1" fill-rule="nonzero"/><path fill="#a3aedf" d="M 928.277344 466.265625 C 930.921875 467.785156 933.082031 466.558594 933.101562 463.515625 C 933.101562 460.492188 930.957031 456.773438 928.3125 455.234375 L 918.710938 449.703125 C 916.066406 448.179688 913.90625 449.410156 913.90625 452.433594 C 913.886719 455.476562 916.03125 459.195312 918.679688 460.734375 Z M 984.429688 476.535156 L 983.753906 487.183594 C 983.652344 487.117188 983.546875 487.046875 983.441406 486.996094 C 980.933594 485.542969 978.773438 486.527344 978.636719 489.363281 C 978.429688 492.269531 980.433594 496.089844 983.0625 497.765625 L 982.371094 508.414062 C 979.621094 506.824219 977.40625 507.757812 977.21875 510.578125 L 976.457031 521.675781 L 870.273438 460.386719 L 866.484375 392.113281 C 866.484375 388.914062 868.664062 387.671875 871.292969 389.191406 L 975.902344 449.566406 C 978.550781 451.101562 980.675781 454.820312 980.675781 457.863281 L 979.984375 468.117188 C 979.828125 471.054688 981.78125 474.839844 984.429688 476.535156 " fill-opacity="1" fill-rule="nonzero"/><path fill="#3c56af" d="M 975.9375 438.550781 C 983.839844 443.117188 990.257812 454.214844 990.273438 463.394531 L 990.273438 463.792969 L 990.222656 464.3125 L 990.1875 465.054688 L 989.582031 474.304688 C 989.480469 475.757812 988.90625 476.671875 988.078125 477.121094 C 987.230469 477.574219 986.089844 477.519531 984.894531 476.828125 C 984.738281 476.742188 984.601562 476.640625 984.445312 476.535156 C 981.78125 474.839844 979.828125 471.054688 979.984375 468.117188 L 980.675781 458.140625 C 980.675781 454.820312 978.550781 451.101562 975.902344 449.566406 L 871.292969 389.191406 C 868.664062 387.671875 866.484375 388.914062 866.484375 391.890625 L 870.273438 460.386719 L 861.019531 455.046875 C 860.898438 454.976562 860.777344 454.90625 860.675781 454.855469 L 858.21875 410.871094 L 857.269531 393.496094 L 856.9375 387.703125 C 856.886719 387.011719 856.886719 386.5625 856.886719 386.410156 C 856.90625 377.246094 863.425781 373.597656 871.328125 378.179688 L 897.425781 393.238281 L 910.378906 400.707031 L 936.886719 416.007812 L 949.839844 423.492188 L 975.9375 438.550781 " fill-opacity="1" fill-rule="nonzero"/><path fill="#5eb6e9" d="M 1003.296875 547.125 L 1000.875 518.375 C 999.714844 504.679688 995.082031 490.332031 988.078125 477.121094 C 988.90625 476.671875 989.480469 475.757812 989.582031 474.425781 L 990.1875 465.054688 C 1001.289062 482.964844 1008.796875 503.402344 1010.421875 522.714844 L 1012.203125 543.894531 C 1008.554688 543.476562 1005.457031 544.636719 1003.296875 547.125 " fill-opacity="1" fill-rule="nonzero"/><path fill="#a9e3f2" d="M 1000.875 518.375 L 1003.296875 547.125 C 1001.308594 549.460938 1000.132812 552.933594 1000.113281 557.414062 L 989.703125 551.394531 C 990.238281 549.976562 990.535156 548.300781 990.535156 546.363281 L 990.566406 535.351562 C 990.566406 532.429688 988.613281 528.921875 986.125 527.277344 L 986.796875 516.886719 C 986.917969 515.453125 986.488281 513.777344 985.640625 512.167969 C 984.808594 510.59375 983.617188 509.246094 982.371094 508.414062 L 983.0625 497.765625 L 983.355469 497.992188 C 985.898438 499.460938 988.027344 498.421875 988.164062 495.640625 C 988.371094 492.664062 986.367188 488.898438 983.789062 487.203125 L 984.445312 476.535156 C 984.601562 476.640625 984.738281 476.742188 984.894531 476.828125 C 986.089844 477.519531 987.230469 477.574219 988.078125 477.121094 C 995.082031 490.332031 999.714844 504.679688 1000.875 518.375 " fill-opacity="1" fill-rule="nonzero"/><path fill="#3c56af" d="M 909.632812 262.257812 C 911.191406 263.15625 912.710938 264.902344 913.628906 267.027344 C 915.082031 270.398438 914.476562 273.476562 912.261719 273.890625 L 903.839844 275.484375 L 912.226562 286.773438 C 914.441406 289.746094 915.011719 293.496094 913.542969 295.191406 C 912.609375 296.246094 911.070312 296.230469 909.53125 295.332031 C 908.613281 294.792969 907.695312 293.964844 906.882812 292.875 L 892.511719 273.546875 C 891.179688 271.75 890.386719 269.570312 890.386719 267.703125 C 890.386719 265.871094 891.199219 264.625 892.53125 264.367188 L 906.96875 261.652344 C 907.78125 261.496094 908.714844 261.738281 909.632812 262.257812 " fill-opacity="1" fill-rule="nonzero"/><path fill="#3c56af" d="M 938.011719 267.597656 C 938.410156 267.824219 938.808594 268.101562 939.1875 268.445312 C 941.765625 270.660156 943.320312 274.566406 942.664062 277.160156 L 932.945312 315.714844 C 932.410156 317.910156 930.4375 318.445312 928.292969 317.199219 C 927.914062 316.976562 927.515625 316.699219 927.132812 316.371094 C 924.558594 314.140625 923 310.25 923.660156 307.65625 L 933.378906 269.101562 C 933.914062 266.925781 935.867188 266.355469 938.011719 267.597656 " fill-opacity="1" fill-rule="nonzero"/><path fill="#5eb6e9" d="M 923.847656 336.71875 C 942.351562 347.40625 957.363281 375.878906 957.292969 400.1875 C 957.277344 410.613281 954.476562 418.601562 949.839844 423.492188 L 936.886719 416.007812 C 943.375 413.8125 947.664062 406.136719 947.695312 394.65625 C 947.75 376.414062 937.042969 355.375 923.8125 347.75 C 910.585938 340.109375 899.777344 348.734375 899.722656 366.957031 C 899.6875 378.4375 903.925781 391.042969 910.378906 400.707031 L 897.425781 393.238281 C 892.839844 383.019531 890.089844 371.832031 890.125 361.425781 C 890.195312 337.101562 905.308594 326.019531 923.847656 336.71875 " fill-opacity="1" fill-rule="nonzero"/><path fill="#3c56af" d="M 957.605469 289.953125 C 958.523438 290.488281 959.457031 291.320312 960.269531 292.410156 L 974.640625 311.753906 C 975.953125 313.535156 976.769531 315.730469 976.75 317.5625 C 976.75 319.414062 975.9375 320.675781 974.605469 320.917969 L 960.183594 323.632812 C 959.351562 323.789062 958.4375 323.5625 957.519531 323.027344 C 955.980469 322.144531 954.457031 320.398438 953.542969 318.273438 C 952.070312 314.882812 952.675781 311.808594 954.890625 311.390625 L 963.3125 309.800781 L 954.925781 298.527344 C 952.730469 295.554688 952.140625 291.785156 953.609375 290.109375 C 954.546875 289.039062 956.050781 289.054688 957.605469 289.953125 " fill-opacity="1" fill-rule="nonzero"/><path fill="#ffffff" d="M 923.8125 347.75 C 937.042969 355.375 947.75 376.414062 947.695312 394.65625 C 947.664062 406.136719 943.375 413.8125 936.886719 416.007812 L 910.378906 400.707031 C 903.925781 391.042969 899.6875 378.4375 899.722656 366.957031 C 899.777344 348.734375 910.585938 340.109375 923.8125 347.75 " fill-opacity="1" fill-rule="nonzero"/><path fill="#6db5e7" d="M 190.667969 536.386719 C 187.882812 536.386719 185.140625 535.453125 182.953125 533.710938 L 42.046875 423.085938 C 39.015625 420.710938 37.277344 417.144531 37.277344 413.308594 C 37.277344 409.46875 39.015625 405.902344 42.035156 403.507812 L 182.953125 292.902344 C 185.140625 291.160156 187.882812 290.226562 190.667969 290.226562 C 194.515625 290.226562 198.109375 291.945312 200.46875 294.980469 C 202.53125 297.589844 203.464844 300.855469 203.0625 304.144531 C 202.679688 307.453125 201 310.402344 198.386719 312.460938 L 69.964844 413.308594 L 198.386719 514.132812 C 201 516.210938 202.679688 519.160156 203.0625 522.449219 C 203.464844 525.757812 202.53125 529.003906 200.46875 531.632812 C 198.109375 534.644531 194.515625 536.386719 190.667969 536.386719 " fill-opacity="1" fill-rule="nonzero"/><g clip-path="url(#c98865991d)"><path fill="#224c8d" d="M 190.667969 284.925781 C 186.691406 284.925781 182.804688 286.261719 179.679688 288.722656 L 38.757812 399.347656 C 34.429688 402.765625 31.964844 407.832031 31.964844 413.308594 C 31.964844 418.78125 34.449219 423.871094 38.757812 427.265625 L 179.679688 537.890625 C 182.78125 540.332031 186.691406 541.6875 190.667969 541.6875 C 196.175781 541.6875 201.277344 539.207031 204.65625 534.898438 C 207.609375 531.1875 208.90625 526.542969 208.355469 521.832031 C 207.78125 517.125 205.421875 512.902344 201.679688 509.976562 L 78.550781 413.308594 L 201.679688 316.636719 C 205.421875 313.691406 207.78125 309.488281 208.355469 304.78125 C 208.90625 300.070312 207.609375 295.425781 204.65625 291.691406 C 201.277344 287.386719 196.152344 284.925781 190.667969 284.925781 Z M 190.667969 295.53125 C 192.792969 295.53125 194.898438 296.464844 196.300781 298.246094 C 198.769531 301.363281 198.214844 305.863281 195.109375 308.300781 L 61.355469 413.308594 L 195.109375 518.3125 C 198.214844 520.75 198.769531 525.25 196.300781 528.34375 C 194.898438 530.148438 192.792969 531.082031 190.667969 531.082031 C 189.117188 531.082031 187.566406 530.59375 186.246094 529.554688 L 45.324219 418.929688 C 43.605469 417.570312 42.59375 415.492188 42.59375 413.308594 C 42.59375 411.101562 43.605469 409.042969 45.324219 407.683594 L 186.246094 297.058594 C 187.542969 296.019531 189.117188 295.53125 190.667969 295.53125 " fill-opacity="1" fill-rule="nonzero"/></g><path fill="#6db5e7" d="M 376.59375 536.386719 C 372.746094 536.386719 369.175781 534.644531 366.773438 531.632812 C 362.519531 526.246094 363.457031 518.394531 368.875 514.132812 L 497.320312 413.308594 L 368.875 312.460938 C 363.457031 308.21875 362.519531 300.367188 366.773438 294.980469 C 369.175781 291.945312 372.746094 290.226562 376.59375 290.226562 C 379.378906 290.226562 382.121094 291.160156 384.308594 292.902344 L 525.230469 403.507812 C 528.25 405.902344 529.972656 409.46875 529.972656 413.308594 C 529.972656 417.144531 528.25 420.710938 525.210938 423.085938 L 384.308594 533.710938 C 382.121094 535.453125 379.378906 536.386719 376.59375 536.386719 " fill-opacity="1" fill-rule="nonzero"/><g clip-path="url(#30c00764fb)"><path fill="#224c8d" d="M 376.59375 284.925781 C 371.109375 284.925781 366.007812 287.386719 362.605469 291.691406 C 356.527344 299.390625 357.863281 310.570312 365.582031 316.636719 L 488.710938 413.308594 L 365.582031 509.976562 C 357.863281 516.019531 356.527344 527.222656 362.605469 534.898438 C 366.007812 539.207031 371.109375 541.6875 376.59375 541.6875 C 380.570312 541.6875 384.457031 540.332031 387.582031 537.890625 L 528.503906 427.265625 C 532.820312 423.871094 535.285156 418.78125 535.285156 413.308594 C 535.285156 407.832031 532.820312 402.765625 528.527344 399.347656 L 387.605469 288.722656 C 384.480469 286.261719 380.570312 284.925781 376.59375 284.925781 Z M 376.59375 295.53125 C 378.144531 295.53125 379.71875 296.019531 381.015625 297.058594 L 521.9375 407.683594 C 523.65625 409.042969 524.65625 411.101562 524.65625 413.308594 C 524.65625 415.492188 523.65625 417.570312 521.9375 418.929688 L 381.015625 529.554688 C 379.71875 530.59375 378.144531 531.082031 376.59375 531.082031 C 374.46875 531.082031 372.363281 530.148438 370.960938 528.34375 C 368.515625 525.25 369.046875 520.75 372.148438 518.3125 L 505.90625 413.308594 L 372.148438 308.300781 C 369.046875 305.863281 368.515625 301.363281 370.960938 298.246094 C 372.363281 296.464844 374.488281 295.53125 376.59375 295.53125 " fill-opacity="1" fill-rule="nonzero"/></g><path fill="#6db5e7" d="M 213.605469 603.144531 C 212.054688 603.144531 210.542969 602.847656 209.097656 602.292969 C 205.996094 601.085938 203.53125 598.75 202.191406 595.71875 C 200.828125 592.664062 200.765625 589.289062 201.957031 586.195312 L 339.582031 231.425781 C 341.433594 226.671875 346.109375 223.46875 351.210938 223.46875 C 352.761719 223.46875 354.292969 223.765625 355.738281 224.320312 C 362.136719 226.800781 365.347656 234.035156 362.859375 240.441406 L 225.253906 595.1875 C 223.40625 599.941406 218.707031 603.144531 213.605469 603.144531 " fill-opacity="1" fill-rule="nonzero"/><g clip-path="url(#d078deb426)"><path fill="#224c8d" d="M 351.210938 218.167969 C 343.917969 218.167969 337.246094 222.75 334.628906 229.515625 L 197.003906 584.261719 C 195.300781 588.695312 195.410156 593.511719 197.320312 597.859375 C 199.257812 602.1875 202.742188 605.539062 207.1875 607.238281 C 209.25 608.042969 211.394531 608.445312 213.605469 608.445312 C 220.898438 608.445312 227.574219 603.886719 230.207031 597.097656 L 367.8125 242.351562 C 371.363281 233.207031 366.792969 222.898438 357.632812 219.375 C 355.589844 218.570312 353.421875 218.167969 351.210938 218.167969 Z M 351.210938 228.773438 C 352.082031 228.773438 352.953125 228.945312 353.804688 229.261719 C 357.503906 230.683594 359.332031 234.820312 357.90625 238.511719 L 220.28125 593.257812 C 219.195312 596.101562 216.476562 597.839844 213.605469 597.839844 C 212.734375 597.839844 211.863281 597.691406 211.011719 597.351562 C 207.3125 595.929688 205.484375 591.773438 206.929688 588.101562 L 344.535156 233.355469 C 345.640625 230.511719 348.339844 228.773438 351.210938 228.773438 " fill-opacity="1" fill-rule="nonzero"/></g><g clip-path="url(#2af0558af0)"><g clip-path="url(#521b99ec09)"><path fill="#000000" d="M 356.875 146.757812 L 829.851562 320.398438 L 656.210938 793.375 L 183.238281 619.734375 Z M 356.875 146.757812 " fill-opacity="1" fill-rule="nonzero"/></g></g><g fill="#ffffff" fill-opacity="1"><g transform="translate(241.181552, 391.170927)"><g><path d="M 76.28125 0 C 74.882812 0 73.941406 -0.695312 73.453125 -2.09375 L 69.265625 -15.96875 C 69.171875 -16.46875 68.875 -16.71875 68.375 -16.71875 L 31.796875 -16.71875 C 31.296875 -16.71875 31 -16.46875 30.90625 -15.96875 L 26.71875 -2.09375 C 26.21875 -0.695312 25.273438 0 23.890625 0 L 6.5625 0 C 5.664062 0 5.019531 -0.269531 4.625 -0.8125 C 4.226562 -1.363281 4.179688 -2.039062 4.484375 -2.84375 L 36.28125 -102.40625 C 36.769531 -103.800781 37.710938 -104.5 39.109375 -104.5 L 61.0625 -104.5 C 62.445312 -104.5 63.390625 -103.800781 63.890625 -102.40625 L 95.6875 -2.84375 C 95.789062 -2.632812 95.84375 -2.332031 95.84375 -1.9375 C 95.84375 -1.34375 95.640625 -0.867188 95.234375 -0.515625 C 94.835938 -0.171875 94.289062 0 93.59375 0 Z M 36.125 -34.03125 C 36.03125 -33.332031 36.28125 -32.984375 36.875 -32.984375 L 63.296875 -32.984375 C 63.890625 -32.984375 64.140625 -33.332031 64.046875 -34.03125 L 50.609375 -79.5625 C 50.503906 -79.957031 50.328125 -80.15625 50.078125 -80.15625 C 49.828125 -80.15625 49.601562 -79.957031 49.40625 -79.5625 Z M 36.125 -34.03125 "/></g></g></g><g fill="#ffffff" fill-opacity="1"><g transform="translate(352.250431, 391.170927)"><g><path d="M 38.0625 -0.15625 C 36.375 -0.15625 35.53125 -1 35.53125 -2.6875 L 35.53125 -39.5625 L 35.234375 -40.75 L 5.078125 -101.515625 C 4.773438 -102.003906 4.625 -102.453125 4.625 -102.859375 C 4.625 -103.347656 4.820312 -103.742188 5.21875 -104.046875 C 5.625 -104.347656 6.171875 -104.5 6.859375 -104.5 L 24.1875 -104.5 C 25.582031 -104.5 26.578125 -103.851562 27.171875 -102.5625 L 45.375 -63.75 C 45.582031 -63.445312 45.804688 -63.296875 46.046875 -63.296875 C 46.296875 -63.296875 46.472656 -63.445312 46.578125 -63.75 L 64.78125 -102.5625 C 65.476562 -103.851562 66.476562 -104.5 67.78125 -104.5 L 85.234375 -104.5 C 86.734375 -104.5 87.484375 -103.898438 87.484375 -102.703125 C 87.484375 -102.203125 87.382812 -101.804688 87.1875 -101.515625 L 56.734375 -40.75 L 56.421875 -39.5625 L 56.421875 -2.6875 C 56.421875 -1 55.578125 -0.15625 53.890625 -0.15625 Z M 38.0625 -0.15625 "/></g></g></g><g fill="#ffffff" fill-opacity="1"><g transform="translate(455.257872, 391.170927)"><g><path d="M 47.03125 1.1875 C 39.363281 1.1875 32.617188 -0.300781 26.796875 -3.28125 C 20.972656 -6.269531 16.441406 -10.472656 13.203125 -15.890625 C 9.972656 -21.316406 8.359375 -27.566406 8.359375 -34.640625 L 8.359375 -101.953125 C 8.359375 -103.648438 9.203125 -104.5 10.890625 -104.5 L 26.875 -104.5 C 28.5625 -104.5 29.40625 -103.648438 29.40625 -101.953125 L 29.40625 -34.484375 C 29.40625 -29.210938 31.019531 -24.957031 34.25 -21.71875 C 37.488281 -18.488281 41.75 -16.875 47.03125 -16.875 C 52.300781 -16.875 56.550781 -18.488281 59.78125 -21.71875 C 63.019531 -24.957031 64.640625 -29.210938 64.640625 -34.484375 L 64.640625 -101.953125 C 64.640625 -103.648438 65.484375 -104.5 67.171875 -104.5 L 83.15625 -104.5 C 84.84375 -104.5 85.6875 -103.648438 85.6875 -101.953125 L 85.6875 -34.640625 C 85.6875 -27.566406 84.066406 -21.316406 80.828125 -15.890625 C 77.597656 -10.472656 73.070312 -6.269531 67.25 -3.28125 C 61.425781 -0.300781 54.6875 1.1875 47.03125 1.1875 Z M 47.03125 1.1875 "/></g></g></g><g fill="#ffffff" fill-opacity="1"><g transform="translate(560.056747, 391.170927)"><g><path d="M 44.484375 1.1875 C 36.722656 1.1875 29.90625 -0.101562 24.03125 -2.6875 C 18.164062 -5.269531 13.640625 -8.898438 10.453125 -13.578125 C 7.265625 -18.253906 5.671875 -23.726562 5.671875 -30 L 5.671875 -32.546875 C 5.671875 -34.234375 6.515625 -35.078125 8.203125 -35.078125 L 23.890625 -35.078125 C 25.578125 -35.078125 26.421875 -34.429688 26.421875 -33.140625 L 26.421875 -31.046875 C 26.421875 -27.066406 28.238281 -23.707031 31.875 -20.96875 C 35.507812 -18.238281 40.257812 -16.875 46.125 -16.875 C 51.40625 -16.875 55.3125 -17.992188 57.84375 -20.234375 C 60.382812 -22.472656 61.65625 -25.234375 61.65625 -28.515625 C 61.65625 -30.898438 60.859375 -32.910156 59.265625 -34.546875 C 57.671875 -36.191406 55.53125 -37.632812 52.84375 -38.875 C 50.15625 -40.125 45.828125 -41.84375 39.859375 -44.03125 C 33.085938 -46.320312 27.410156 -48.660156 22.828125 -51.046875 C 18.253906 -53.441406 14.375 -56.703125 11.1875 -60.828125 C 8.007812 -64.960938 6.421875 -70.066406 6.421875 -76.140625 C 6.421875 -82.109375 7.960938 -87.332031 11.046875 -91.8125 C 14.128906 -96.289062 18.429688 -99.722656 23.953125 -102.109375 C 29.484375 -104.492188 35.78125 -105.6875 42.84375 -105.6875 C 50.40625 -105.6875 57.171875 -104.34375 63.140625 -101.65625 C 69.117188 -98.96875 73.773438 -95.210938 77.109375 -90.390625 C 80.441406 -85.566406 82.109375 -79.96875 82.109375 -73.59375 L 82.109375 -72.109375 C 82.109375 -70.410156 81.257812 -69.5625 79.5625 -69.5625 L 63.890625 -69.5625 C 62.203125 -69.5625 61.359375 -70.0625 61.359375 -71.0625 L 61.359375 -72.546875 C 61.359375 -76.734375 59.640625 -80.289062 56.203125 -83.21875 C 52.765625 -86.15625 48.0625 -87.625 42.09375 -87.625 C 37.320312 -87.625 33.640625 -86.628906 31.046875 -84.640625 C 28.460938 -82.648438 27.171875 -79.914062 27.171875 -76.4375 C 27.171875 -73.945312 27.914062 -71.851562 29.40625 -70.15625 C 30.894531 -68.46875 33.15625 -66.925781 36.1875 -65.53125 C 39.226562 -64.132812 43.9375 -62.34375 50.3125 -60.15625 C 57.269531 -57.570312 62.789062 -55.304688 66.875 -53.359375 C 70.957031 -51.421875 74.613281 -48.460938 77.84375 -44.484375 C 81.082031 -40.503906 82.703125 -35.378906 82.703125 -29.109375 C 82.703125 -23.035156 81.132812 -17.707031 78 -13.125 C 74.863281 -8.550781 70.429688 -5.019531 64.703125 -2.53125 C 58.984375 -0.0507812 52.242188 1.1875 44.484375 1.1875 Z M 44.484375 1.1875 "/></g></g></g><g fill="#ffffff" fill-opacity="1"><g transform="translate(659.332006, 391.170927)"><g><path d="M 64.640625 -101.953125 C 64.640625 -103.648438 65.484375 -104.5 67.171875 -104.5 L 83.15625 -104.5 C 84.84375 -104.5 85.6875 -103.648438 85.6875 -101.953125 L 85.6875 -2.53125 C 85.6875 -0.84375 84.84375 0 83.15625 0 L 67.171875 0 C 65.484375 0 64.640625 -0.84375 64.640625 -2.53125 L 64.640625 -42.84375 C 64.640625 -43.4375 64.34375 -43.734375 63.75 -43.734375 L 31.046875 -43.734375 C 30.453125 -43.734375 30.15625 -43.4375 30.15625 -42.84375 L 30.15625 -2.53125 C 30.15625 -0.84375 29.304688 0 27.609375 0 L 11.640625 0 C 9.953125 0 9.109375 -0.84375 9.109375 -2.53125 L 9.109375 -101.953125 C 9.109375 -103.648438 9.953125 -104.5 11.640625 -104.5 L 27.609375 -104.5 C 29.304688 -104.5 30.15625 -103.648438 30.15625 -101.953125 L 30.15625 -62.703125 C 30.15625 -62.097656 30.453125 -61.796875 31.046875 -61.796875 L 63.75 -61.796875 C 64.34375 -61.796875 64.640625 -62.097656 64.640625 -62.703125 Z M 64.640625 -101.953125 "/></g></g></g><g fill="#ffffff" fill-opacity="1"><g transform="translate(241.181552, 557.56282)"><g><path d="M 71.203125 -54.640625 C 70.910156 -54.535156 70.765625 -54.359375 70.765625 -54.109375 C 70.765625 -53.859375 70.910156 -53.632812 71.203125 -53.4375 C 80.554688 -48.757812 85.234375 -40.703125 85.234375 -29.265625 C 85.234375 -19.609375 81.945312 -12.316406 75.375 -7.390625 C 68.8125 -2.460938 60.207031 0 49.5625 0 L 11.640625 0 C 9.953125 0 9.109375 -0.84375 9.109375 -2.53125 L 9.109375 -101.953125 C 9.109375 -103.648438 9.953125 -104.5 11.640625 -104.5 L 48.359375 -104.5 C 71.953125 -104.5 83.75 -94.941406 83.75 -75.828125 C 83.75 -65.773438 79.566406 -58.710938 71.203125 -54.640625 Z M 31.046875 -86.4375 C 30.453125 -86.4375 30.15625 -86.132812 30.15625 -85.53125 L 30.15625 -62.546875 C 30.15625 -61.953125 30.453125 -61.65625 31.046875 -61.65625 L 48.359375 -61.65625 C 53.046875 -61.65625 56.679688 -62.75 59.265625 -64.9375 C 61.847656 -67.125 63.140625 -70.109375 63.140625 -73.890625 C 63.140625 -77.773438 61.847656 -80.835938 59.265625 -83.078125 C 56.679688 -85.316406 53.046875 -86.4375 48.359375 -86.4375 Z M 49.5625 -18.21875 C 54.132812 -18.21875 57.710938 -19.382812 60.296875 -21.71875 C 62.890625 -24.0625 64.1875 -27.269531 64.1875 -31.34375 C 64.1875 -35.425781 62.890625 -38.632812 60.296875 -40.96875 C 57.710938 -43.3125 54.082031 -44.484375 49.40625 -44.484375 L 31.046875 -44.484375 C 30.453125 -44.484375 30.15625 -44.1875 30.15625 -43.59375 L 30.15625 -19.109375 C 30.15625 -18.515625 30.453125 -18.21875 31.046875 -18.21875 Z M 49.5625 -18.21875 "/></g></g></g><g fill="#ffffff" fill-opacity="1"><g transform="translate(344.636842, 557.56282)"><g><path d="M 76.28125 0 C 74.882812 0 73.941406 -0.695312 73.453125 -2.09375 L 69.265625 -15.96875 C 69.171875 -16.46875 68.875 -16.71875 68.375 -16.71875 L 31.796875 -16.71875 C 31.296875 -16.71875 31 -16.46875 30.90625 -15.96875 L 26.71875 -2.09375 C 26.21875 -0.695312 25.273438 0 23.890625 0 L 6.5625 0 C 5.664062 0 5.019531 -0.269531 4.625 -0.8125 C 4.226562 -1.363281 4.179688 -2.039062 4.484375 -2.84375 L 36.28125 -102.40625 C 36.769531 -103.800781 37.710938 -104.5 39.109375 -104.5 L 61.0625 -104.5 C 62.445312 -104.5 63.390625 -103.800781 63.890625 -102.40625 L 95.6875 -2.84375 C 95.789062 -2.632812 95.84375 -2.332031 95.84375 -1.9375 C 95.84375 -1.34375 95.640625 -0.867188 95.234375 -0.515625 C 94.835938 -0.171875 94.289062 0 93.59375 0 Z M 36.125 -34.03125 C 36.03125 -33.332031 36.28125 -32.984375 36.875 -32.984375 L 63.296875 -32.984375 C 63.890625 -32.984375 64.140625 -33.332031 64.046875 -34.03125 L 50.609375 -79.5625 C 50.503906 -79.957031 50.328125 -80.15625 50.078125 -80.15625 C 49.828125 -80.15625 49.601562 -79.957031 49.40625 -79.5625 Z M 36.125 -34.03125 "/></g></g></g><g fill="#ffffff" fill-opacity="1"><g transform="translate(455.705721, 557.56282)"><g><path d="M 11.640625 0 C 9.953125 0 9.109375 -0.84375 9.109375 -2.53125 L 9.109375 -101.953125 C 9.109375 -103.648438 9.953125 -104.5 11.640625 -104.5 L 27.015625 -104.5 C 28.304688 -104.5 29.300781 -103.953125 30 -102.859375 L 67.328125 -40.75 C 67.523438 -40.351562 67.75 -40.203125 68 -40.296875 C 68.25 -40.398438 68.375 -40.648438 68.375 -41.046875 L 68.375 -101.953125 C 68.375 -103.648438 69.21875 -104.5 70.90625 -104.5 L 86.578125 -104.5 C 88.273438 -104.5 89.125 -103.648438 89.125 -101.953125 L 89.125 -2.53125 C 89.125 -0.84375 88.273438 0 86.578125 0 L 71.359375 0 C 70.160156 0 69.164062 -0.597656 68.375 -1.796875 L 30.90625 -64.484375 C 30.707031 -64.890625 30.484375 -65.039062 30.234375 -64.9375 C 29.984375 -64.832031 29.859375 -64.582031 29.859375 -64.1875 L 30 -2.53125 C 30 -0.84375 29.15625 0 27.46875 0 Z M 11.640625 0 "/></g></g></g><g fill="#ffffff" fill-opacity="1"><g transform="translate(564.833891, 557.56282)"><g><path d="M 44.484375 1.1875 C 36.722656 1.1875 29.90625 -0.101562 24.03125 -2.6875 C 18.164062 -5.269531 13.640625 -8.898438 10.453125 -13.578125 C 7.265625 -18.253906 5.671875 -23.726562 5.671875 -30 L 5.671875 -32.546875 C 5.671875 -34.234375 6.515625 -35.078125 8.203125 -35.078125 L 23.890625 -35.078125 C 25.578125 -35.078125 26.421875 -34.429688 26.421875 -33.140625 L 26.421875 -31.046875 C 26.421875 -27.066406 28.238281 -23.707031 31.875 -20.96875 C 35.507812 -18.238281 40.257812 -16.875 46.125 -16.875 C 51.40625 -16.875 55.3125 -17.992188 57.84375 -20.234375 C 60.382812 -22.472656 61.65625 -25.234375 61.65625 -28.515625 C 61.65625 -30.898438 60.859375 -32.910156 59.265625 -34.546875 C 57.671875 -36.191406 55.53125 -37.632812 52.84375 -38.875 C 50.15625 -40.125 45.828125 -41.84375 39.859375 -44.03125 C 33.085938 -46.320312 27.410156 -48.660156 22.828125 -51.046875 C 18.253906 -53.441406 14.375 -56.703125 11.1875 -60.828125 C 8.007812 -64.960938 6.421875 -70.066406 6.421875 -76.140625 C 6.421875 -82.109375 7.960938 -87.332031 11.046875 -91.8125 C 14.128906 -96.289062 18.429688 -99.722656 23.953125 -102.109375 C 29.484375 -104.492188 35.78125 -105.6875 42.84375 -105.6875 C 50.40625 -105.6875 57.171875 -104.34375 63.140625 -101.65625 C 69.117188 -98.96875 73.773438 -95.210938 77.109375 -90.390625 C 80.441406 -85.566406 82.109375 -79.96875 82.109375 -73.59375 L 82.109375 -72.109375 C 82.109375 -70.410156 81.257812 -69.5625 79.5625 -69.5625 L 63.890625 -69.5625 C 62.203125 -69.5625 61.359375 -70.0625 61.359375 -71.0625 L 61.359375 -72.546875 C 61.359375 -76.734375 59.640625 -80.289062 56.203125 -83.21875 C 52.765625 -86.15625 48.0625 -87.625 42.09375 -87.625 C 37.320312 -87.625 33.640625 -86.628906 31.046875 -84.640625 C 28.460938 -82.648438 27.171875 -79.914062 27.171875 -76.4375 C 27.171875 -73.945312 27.914062 -71.851562 29.40625 -70.15625 C 30.894531 -68.46875 33.15625 -66.925781 36.1875 -65.53125 C 39.226562 -64.132812 43.9375 -62.34375 50.3125 -60.15625 C 57.269531 -57.570312 62.789062 -55.304688 66.875 -53.359375 C 70.957031 -51.421875 74.613281 -48.460938 77.84375 -44.484375 C 81.082031 -40.503906 82.703125 -35.378906 82.703125 -29.109375 C 82.703125 -23.035156 81.132812 -17.707031 78 -13.125 C 74.863281 -8.550781 70.429688 -5.019531 64.703125 -2.53125 C 58.984375 -0.0507812 52.242188 1.1875 44.484375 1.1875 Z M 44.484375 1.1875 "/></g></g></g><g fill="#ffffff" fill-opacity="1"><g transform="translate(664.10915, 557.56282)"><g><path d="M 76.28125 0 C 74.882812 0 73.941406 -0.695312 73.453125 -2.09375 L 69.265625 -15.96875 C 69.171875 -16.46875 68.875 -16.71875 68.375 -16.71875 L 31.796875 -16.71875 C 31.296875 -16.71875 31 -16.46875 30.90625 -15.96875 L 26.71875 -2.09375 C 26.21875 -0.695312 25.273438 0 23.890625 0 L 6.5625 0 C 5.664062 0 5.019531 -0.269531 4.625 -0.8125 C 4.226562 -1.363281 4.179688 -2.039062 4.484375 -2.84375 L 36.28125 -102.40625 C 36.769531 -103.800781 37.710938 -104.5 39.109375 -104.5 L 61.0625 -104.5 C 62.445312 -104.5 63.390625 -103.800781 63.890625 -102.40625 L 95.6875 -2.84375 C 95.789062 -2.632812 95.84375 -2.332031 95.84375 -1.9375 C 95.84375 -1.34375 95.640625 -0.867188 95.234375 -0.515625 C 94.835938 -0.171875 94.289062 0 93.59375 0 Z M 36.125 -34.03125 C 36.03125 -33.332031 36.28125 -32.984375 36.875 -32.984375 L 63.296875 -32.984375 C 63.890625 -32.984375 64.140625 -33.332031 64.046875 -34.03125 L 50.609375 -79.5625 C 50.503906 -79.957031 50.328125 -80.15625 50.078125 -80.15625 C 49.828125 -80.15625 49.601562 -79.957031 49.40625 -79.5625 Z M 36.125 -34.03125 "/></g></g></g><g fill="#ffffff" fill-opacity="1"><g transform="translate(775.178042, 557.56282)"><g><path d="M 11.640625 0 C 9.953125 0 9.109375 -0.84375 9.109375 -2.53125 L 9.109375 -101.953125 C 9.109375 -103.648438 9.953125 -104.5 11.640625 -104.5 L 27.609375 -104.5 C 29.304688 -104.5 30.15625 -103.648438 30.15625 -101.953125 L 30.15625 -18.953125 C 30.15625 -18.359375 30.453125 -18.0625 31.046875 -18.0625 L 78.96875 -18.0625 C 80.65625 -18.0625 81.5 -17.21875 81.5 -15.53125 L 81.5 -2.53125 C 81.5 -0.84375 80.65625 0 78.96875 0 Z M 11.640625 0 "/></g></g></g></svg>